  0
SECTION
  2
HEADER
  9
$ACADVER
  1
AC1015
  9
$ACADMAINTVER
 70
     6
  9
$DWGCODEPAGE
  3
ANSI_1252
  9
$INSBASE
 10
0.0
 20
0.0
 30
0.0
  9
$EXTMIN
 10
-2.25
 20
-2.2373684211
 30
0.0
  9
$EXTMAX
 10
2.25
 20
2.2373684211
 30
0.0
  9
$LIMMIN
 10
0.0
 20
0.0
  9
$LIMMAX
 10
12.0
 20
9.0
  9
$ORTHOMODE
 70
     0
  9
$REGENMODE
 70
     1
  9
$FILLMODE
 70
     1
  9
$QTEXTMODE
 70
     0
  9
$MIRRTEXT
 70
     1
  9
$LTSCALE
 40
1.0
  9
$ATTMODE
 70
     1
  9
$TEXTSIZE
 40
0.1377952756
  9
$TRACEWID
 40
0.05
  9
$TEXTSTYLE
  7
Standard
  9
$CLAYER
  8
0
  9
$CELTYPE
  6
ByLayer
  9
$CECOLOR
 62
   256
  9
$CELTSCALE
 40
1.0
  9
$DISPSILH
 70
     0
  9
$DIMSCALE
 40
1.0
  9
$DIMASZ
 40
0.13
  9
$DIMEXO
 40
0.0
  9
$DIMDLI
 40
0.38
  9
$DIMRND
 40
0.0
  9
$DIMDLE
 40
0.0
  9
$DIMEXE
 40
0.125
  9
$DIMTP
 40
0.0
  9
$DIMTM
 40
0.0
  9
$DIMTXT
 40
0.1377952756
  9
$DIMCEN
 40
0.09
  9
$DIMTSZ
 40
0.0
  9
$DIMTOL
 70
     0
  9
$DIMLIM
 70
     0
  9
$DIMTIH
 70
     1
  9
$DIMTOH
 70
     1
  9
$DIMSE1
 70
     0
  9
$DIMSE2
 70
     0
  9
$DIMTAD
 70
     1
  9
$DIMZIN
 70
     0
  9
$DIMBLK
  1

  9
$DIMASO
 70
     1
  9
$DIMSHO
 70
     1
  9
$DIMPOST
  1

  9
$DIMAPOST
  1

  9
$DIMALT
 70
     0
  9
$DIMALTD
 70
     2
  9
$DIMALTF
 40
25.4
  9
$DIMLFAC
 40
1.0
  9
$DIMTOFL
 70
     0
  9
$DIMTVP
 40
0.0
  9
$DIMTIX
 70
     0
  9
$DIMSOXD
 70
     0
  9
$DIMSAH
 70
     0
  9
$DIMBLK1
  1

  9
$DIMBLK2
  1

  9
$DIMSTYLE
  2
Standard
  9
$DIMCLRD
 70
     0
  9
$DIMCLRE
 70
     0
  9
$DIMCLRT
 70
     0
  9
$DIMTFAC
 40
1.0
  9
$DIMGAP
 40
0.06
  9
$DIMJUST
 70
     0
  9
$DIMSD1
 70
     0
  9
$DIMSD2
 70
     0
  9
$DIMTOLJ
 70
     1
  9
$DIMTZIN
 70
     0
  9
$DIMALTZ
 70
     0
  9
$DIMALTTZ
 70
     0
  9
$DIMUPT
 70
     0
  9
$DIMDEC
 70
     2
  9
$DIMTDEC
 70
     2
  9
$DIMALTU
 70
     2
  9
$DIMALTTD
 70
     2
  9
$DIMTXSTY
  7
Standard
  9
$DIMAUNIT
 70
     0
  9
$DIMADEC
 70
     2
  9
$DIMALTRND
 40
0.0
  9
$DIMAZIN
 70
     0
  9
$DIMDSEP
 70
    46
  9
$DIMATFIT
 70
     3
  9
$DIMFRAC
 70
     0
  9
$DIMLDRBLK
  1

  9
$DIMLUNIT
 70
     2
  9
$DIMLWD
 70
    -2
  9
$DIMLWE
 70
    -2
  9
$DIMTMOVE
 70
     0
  9
$LUNITS
 70
     2
  9
$LUPREC
 70
     2
  9
$SKETCHINC
 40
0.1
  9
$FILLETRAD
 40
0.0
  9
$AUNITS
 70
     0
  9
$AUPREC
 70
     2
  9
$MENU
  1
.
  9
$ELEVATION
 40
0.0
  9
$PELEVATION
 40
0.0
  9
$THICKNESS
 40
0.0
  9
$LIMCHECK
 70
     0
  9
$CHAMFERA
 40
0.0
  9
$CHAMFERB
 40
0.0
  9
$CHAMFERC
 40
0.0
  9
$CHAMFERD
 40
0.0
  9
$SKPOLY
 70
     0
  9
$TDCREATE
 40
2459987.447876366
  9
$TDUCREATE
 40
2459987.781209699
  9
$TDUPDATE
 40
2459987.448061435
  9
$TDUUPDATE
 40
2459987.781394769
  9
$TDINDWG
 40
0.0000000116
  9
$TDUSRTIMER
 40
0.0000000116
  9
$USRTIMER
 70
     1
  9
$ANGBASE
 50
0.0
  9
$ANGDIR
 70
     0
  9
$PDMODE
 70
     0
  9
$PDSIZE
 40
-1.0
  9
$PLINEWID
 40
0.0
  9
$SPLFRAME
 70
     0
  9
$SPLINETYPE
 70
     6
  9
$SPLINESEGS
 70
     8
  9
$HANDSEED
  5
2B4
  9
$SURFTAB1
 70
     6
  9
$SURFTAB2
 70
     6
  9
$SURFTYPE
 70
     6
  9
$SURFU
 70
     6
  9
$SURFV
 70
     6
  9
$UCSBASE
  2

  9
$UCSNAME
  2

  9
$UCSORG
 10
0.0
 20
0.0
 30
0.0
  9
$UCSXDIR
 10
1.0
 20
0.0
 30
0.0
  9
$UCSYDIR
 10
0.0
 20
1.0
 30
0.0
  9
$UCSORTHOREF
  2

  9
$UCSORTHOVIEW
 70
     0
  9
$UCSORGTOP
 10
0.0
 20
0.0
 30
0.0
  9
$UCSORGBOTTOM
 10
0.0
 20
0.0
 30
0.0
  9
$UCSORGLEFT
 10
0.0
 20
0.0
 30
0.0
  9
$UCSORGRIGHT
 10
0.0
 20
0.0
 30
0.0
  9
$UCSORGFRONT
 10
0.0
 20
0.0
 30
0.0
  9
$UCSORGBACK
 10
0.0
 20
0.0
 30
0.0
  9
$PUCSBASE
  2

  9
$PUCSNAME
  2

  9
$PUCSORG
 10
0.0
 20
0.0
 30
0.0
  9
$PUCSXDIR
 10
1.0
 20
0.0
 30
0.0
  9
$PUCSYDIR
 10
0.0
 20
1.0
 30
0.0
  9
$PUCSORTHOREF
  2

  9
$PUCSORTHOVIEW
 70
     0
  9
$PUCSORGTOP
 10
0.0
 20
0.0
 30
0.0
  9
$PUCSORGBOTTOM
 10
0.0
 20
0.0
 30
0.0
  9
$PUCSORGLEFT
 10
0.0
 20
0.0
 30
0.0
  9
$PUCSORGRIGHT
 10
0.0
 20
0.0
 30
0.0
  9
$PUCSORGFRONT
 10
0.0
 20
0.0
 30
0.0
  9
$PUCSORGBACK
 10
0.0
 20
0.0
 30
0.0
  9
$USERI1
 70
     0
  9
$USERI2
 70
     0
  9
$USERI3
 70
     0
  9
$USERI4
 70
     0
  9
$USERI5
 70
     0
  9
$USERR1
 40
0.0
  9
$USERR2
 40
0.0
  9
$USERR3
 40
0.0
  9
$USERR4
 40
0.0
  9
$USERR5
 40
0.0
  9
$WORLDVIEW
 70
     1
  9
$SHADEDGE
 70
     3
  9
$SHADEDIF
 70
    70
  9
$TILEMODE
 70
     1
  9
$MAXACTVP
 70
    64
  9
$PINSBASE
 10
0.0
 20
0.0
 30
0.0
  9
$PLIMCHECK
 70
     0
  9
$PEXTMIN
 10
1.0000000000E+20
 20
1.0000000000E+20
 30
1.0000000000E+20
  9
$PEXTMAX
 10
-1.0000000000E+20
 20
-1.0000000000E+20
 30
-1.0000000000E+20
  9
$PLIMMIN
 10
0.0
 20
0.0
  9
$PLIMMAX
 10
12.0
 20
9.0
  9
$UNITMODE
 70
     0
  9
$VISRETAIN
 70
     1
  9
$PLINEGEN
 70
     0
  9
$PSLTSCALE
 70
     1
  9
$TREEDEPTH
 70
  3020
  9
$CMLSTYLE
  2
Standard
  9
$CMLJUST
 70
     0
  9
$CMLSCALE
 40
1.0
  9
$PROXYGRAPHICS
 70
     1
  9
$MEASUREMENT
 70
     0
  9
$CELWEIGHT
370
    -1
  9
$ENDCAPS
280
     0
  9
$JOINSTYLE
280
     0
  9
$LWDISPLAY
290
     1
  9
$INSUNITS
 70
     1
  9
$HYPERLINKBASE
  1

  9
$STYLESHEET
  1

  9
$XEDIT
290
     1
  9
$CEPSNTYPE
380
     0
  9
$PSTYLEMODE
290
     1
  9
$FINGERPRINTGUID
  2
{88267e62-bd70-4cd4-b68f-3c5281da8d16}
  9
$VERSIONGUID
  2
{FAEB1C32-E019-11D5-929B-00C0DF256EC4}
  9
$EXTNAMES
290
     1
  9
$PSVPSCALE
 40
0.0
  9
$OLESTARTUP
290
     0
  0
ENDSEC
  0
SECTION
  2
CLASSES
  0
CLASS
  1
ACDBDICTIONARYWDFLT
  2
AcDbDictionaryWithDefault
  3
ObjectDBX Classes
 90
        0
280
     0
281
     0
  0
CLASS
  1
VISUALSTYLE
  2
AcDbVisualStyle
  3
ObjectDBX Classes
 90
     4095
280
     0
281
     0
  0
CLASS
  1
MATERIAL
  2
AcDbMaterial
  3
ObjectDBX Classes
 90
     1153
280
     0
281
     0
  0
CLASS
  1
SCALE
  2
AcDbScale
  3
ObjectDBX Classes
 90
     1153
280
     0
281
     0
  0
CLASS
  1
TABLESTYLE
  2
AcDbTableStyle
  3
ObjectDBX Classes
 90
     4095
280
     0
281
     0
  0
CLASS
  1
MLEADERSTYLE
  2
AcDbMLeaderStyle
  3
ACDB_MLEADERSTYLE_CLASS
 90
     4095
280
     0
281
     0
  0
CLASS
  1
SUN
  2
AcDbSun
  3
SCENEOE
 90
     1153
280
     0
281
     0
  0
CLASS
  1
ACDBPLACEHOLDER
  2
AcDbPlaceHolder
  3
ObjectDBX Classes
 90
        0
280
     0
281
     0
  0
CLASS
  1
LAYOUT
  2
AcDbLayout
  3
ObjectDBX Classes
 90
        0
280
     0
281
     0
  0
ENDSEC
  0
SECTION
  2
TABLES
  0
TABLE
  2
VPORT
  5
8
330
0
100
AcDbSymbolTable
 70
     1
  0
VPORT
  5
29
330
8
100
AcDbSymbolTableRecord
100
AcDbViewportTableRecord
  2
*Active
 70
     0
 10
0.0
 20
0.0
 11
1.0
 21
1.0
 12
0.0
 22
0.0
 13
0.0
 23
0.0
 14
0.5
 24
0.5
 15
0.5
 25
0.5
 16
0.0
 26
0.0
 36
1.0
 17
0.0
 27
0.0
 37
0.0
 40
4.5642315789
 41
1.0056457304
 42
50.0
 43
0.0
 44
0.0
 50
0.0
 51
0.0
 71
     0
 72
   100
 73
     1
 74
     3
 75
     0
 76
     0
 77
     0
 78
     0
281
     0
 65
     1
110
0.0
120
0.0
130
0.0
111
1.0
121
0.0
131
0.0
112
0.0
122
1.0
132
0.0
 79
     0
146
0.0
  0
ENDTAB
  0
TABLE
  2
LTYPE
  5
5
330
0
100
AcDbSymbolTable
 70
     6
  0
LTYPE
  5
14
330
5
100
AcDbSymbolTableRecord
100
AcDbLinetypeTableRecord
  2
ByBlock
 70
     0
  3

 72
    65
 73
     0
 40
0.0
  0
LTYPE
  5
15
330
5
100
AcDbSymbolTableRecord
100
AcDbLinetypeTableRecord
  2
ByLayer
 70
     0
  3

 72
    65
 73
     0
 40
0.0
  0
LTYPE
  5
16
330
5
100
AcDbSymbolTableRecord
100
AcDbLinetypeTableRecord
  2
Continuous
 70
     0
  3
Solid line
 72
    65
 73
     0
 40
0.0
  0
LTYPE
  5
5E
330
5
100
AcDbSymbolTableRecord
100
AcDbLinetypeTableRecord
  2
HIDDEN
 70
     0
  3
Hidden __ __ __ __ __ __ __ __ __ __ __ __ __ __
 72
    65
 73
     2
 40
0.075
 49
0.05
 74
     0
 49
-0.025
 74
     0
  0
LTYPE
  5
5F
330
5
100
AcDbSymbolTableRecord
100
AcDbLinetypeTableRecord
  2
PHANTOM
 70
     0
  3
Phantom ______  __  __  ______  __  __  ______
 72
    65
 73
     6
 40
0.5
 49
0.25
 74
     0
 49
-0.05
 74
     0
 49
0.05
 74
     0
 49
-0.05
 74
     0
 49
0.05
 74
     0
 49
-0.05
 74
     0
  0
LTYPE
  5
60
330
5
100
AcDbSymbolTableRecord
100
AcDbLinetypeTableRecord
  2
CENTER
 70
     0
  3
Center ____ _ ____ _ ____ _ ____ _ ____ _ ____
 72
    65
 73
     4
 40
0.4
 49
0.25
 74
     0
 49
-0.05
 74
     0
 49
0.05
 74
     0
 49
-0.05
 74
     0
  0
LTYPE
  5
61
330
5
100
AcDbSymbolTableRecord
100
AcDbLinetypeTableRecord
  2
CENTERX2
 70
     0
  3
Center (2x) ________  __  ________  __  _____
 72
    65
 73
     4
 40
0.8
 49
0.5
 74
     0
 49
-0.1
 74
     0
 49
0.1
 74
     0
 49
-0.1
 74
     0
  0
LTYPE
  5
62
330
5
100
AcDbSymbolTableRecord
100
AcDbLinetypeTableRecord
  2
DOT2
 70
     0
  3
Dot (.5x) ........................................
 72
    65
 73
     2
 40
0.025
 49
0.0
 74
     0
 49
-0.025
 74
     0
  0
ENDTAB
  0
TABLE
  2
LAYER
  5
2
330
0
100
AcDbSymbolTable
 70
     1
  0
LAYER
  5
10
330
2
100
AcDbSymbolTableRecord
100
AcDbLayerTableRecord
  2
0
 70
     0
 62
     7
  6
Continuous
370
    -3
390
F
  0
ENDTAB
  0
TABLE
  2
STYLE
  5
3
330
0
100
AcDbSymbolTable
 70
     2
  0
STYLE
  5
11
330
3
100
AcDbSymbolTableRecord
100
AcDbTextStyleTableRecord
  2
Standard
 70
     0
 40
0.0
 41
1.0
 50
0.0
 71
     0
 42
0.1377952756
  3
txt
  4

  0
STYLE
  5
2B0
330
3
100
AcDbSymbolTableRecord
100
AcDbTextStyleTableRecord
  2
SLDTEXTSTYLE0
 70
     0
 40
0.0
 41
0.7
 50
0.0
 71
     0
 42
0.1377952756
  3
TXT
  4

  0
ENDTAB
  0
TABLE
  2
VIEW
  5
6
330
0
100
AcDbSymbolTable
 70
     0
  0
ENDTAB
  0
TABLE
  2
UCS
  5
7
330
0
100
AcDbSymbolTable
 70
     0
  0
ENDTAB
  0
TABLE
  2
APPID
  5
9
330
0
100
AcDbSymbolTable
 70
     1
  0
APPID
  5
12
330
9
100
AcDbSymbolTableRecord
100
AcDbRegAppTableRecord
  2
ACAD
 70
     0
  0
ENDTAB
  0
TABLE
  2
DIMSTYLE
  5
A
330
0
100
AcDbSymbolTable
 70
     1
100
AcDbDimStyleTable
  0
DIMSTYLE
105
27
330
A
100
AcDbSymbolTableRecord
100
AcDbDimStyleTableRecord
  2
Standard
 70
     0
178
     0
340
11
  0
ENDTAB
  0
TABLE
  2
BLOCK_RECORD
  5
1
330
0
100
AcDbSymbolTable
 70
     1
  0
BLOCK_RECORD
  5
1F
330
1
100
AcDbSymbolTableRecord
100
AcDbBlockTableRecord
  2
*Model_Space
340
22
  0
BLOCK_RECORD
  5
1B
330
1
100
AcDbSymbolTableRecord
100
AcDbBlockTableRecord
  2
*Paper_Space
340
1E
  0
BLOCK_RECORD
  5
23
330
1
100
AcDbSymbolTableRecord
100
AcDbBlockTableRecord
  2
*Paper_Space0
340
26
  0
ENDTAB
  0
ENDSEC
  0
SECTION
  2
BLOCKS
  0
BLOCK
  5
20
330
1F
100
AcDbEntity
  8
0
100
AcDbBlockBegin
  2
*Model_Space
 70
     0
 10
0.0
 20
0.0
 30
0.0
  3
*Model_Space
  1

  0
ENDBLK
  5
21
330
1F
100
AcDbEntity
  8
0
100
AcDbBlockEnd
  0
BLOCK
  5
1C
330
1B
100
AcDbEntity
 67
     1
  8
0
100
AcDbBlockBegin
  2
*Paper_Space
 70
     0
 10
0.0
 20
0.0
 30
0.0
  3
*Paper_Space
  1

  0
ENDBLK
  5
1D
330
1B
100
AcDbEntity
 67
     1
  8
0
100
AcDbBlockEnd
  0
BLOCK
  5
24
330
23
100
AcDbEntity
  8
0
100
AcDbBlockBegin
  2
*Paper_Space0
 70
     0
 10
0.0
 20
0.0
 30
0.0
  3
*Paper_Space0
  1

  0
ENDBLK
  5
25
330
23
100
AcDbEntity
  8
0
100
AcDbBlockEnd
  0
ENDSEC
  0
SECTION
  2
ENTITIES
  0
SPLINE
  5
64
330
1F
100
AcDbEntity
  8
0
  6
Continuous
 62
     7
370
    25
100
AcDbSpline
210
0.0
220
0.0
230
1.0
 70
     8
 71
     3
 72
    17
 73
    13
 74
     0
 42
0.00000001
 43
0.00000001
 40
0.0
 40
0.0
 40
0.0
 40
0.0
 40
0.0624954276983196
 40
0.1249872602441581
 40
0.187486491348983
 40
0.250004110821156
 40
0.3749738386350446
 40
0.5000027370737636
 40
0.6249724648768284
 40
0.750001363326397
 40
0.8749858925053099
 40
1.0
 40
1.0
 40
1.0
 40
1.0
 10
1.394717572649715
 20
-1.015080239459957
 30
0.0
 10
1.399181209236075
 20
-1.008897612014284
 30
0.0
 10
1.408108225630744
 20
-0.99653271278877
 30
0.0
 10
1.421185745699706
 20
-0.9777617025693179
 30
0.0
 10
1.434032375617267
 20
-0.9588292053604744
 30
0.0
 10
1.45081717515707
 20
-0.9333594072969766
 30
0.0
 10
1.471167339710417
 20
-0.9011059199951045
 30
0.0
 10
1.494546039693605
 20
-0.861772018464774
 30
0.0
 10
1.516883399917734
 20
-0.8218284160389016
 30
0.0
 10
1.538128848876191
 20
-0.7813015332990868
 30
0.0
 10
1.558375029975621
 20
-0.7402558021661544
 30
0.0
 10
1.570941614155074
 20
-0.7124588268541411
 30
0.0
 10
1.577225649645644
 20
-0.6985586948137401
 30
0.0
  0
SPLINE
  5
68
330
1F
100
AcDbEntity
  8
0
  6
Continuous
 62
     7
370
    25
100
AcDbSpline
210
0.0
220
0.0
230
1.0
 70
     8
 71
     3
 72
    17
 73
    13
 74
     0
 42
0.00000001
 43
0.00000001
 40
0.0
 40
0.0
 40
0.0
 40
0.0
 40
0.0624954276928212
 40
0.1249872602368272
 40
0.1874864913434847
 40
0.2500041108211505
 40
0.3749738386388718
 40
0.5000027370737713
 40
0.6249724648843766
 40
0.7500013633263949
 40
0.8749858925016915
 40
1.0
 40
1.0
 40
1.0
 40
1.0
 10
1.576444060576771
 20
0.700320729289247
 30
0.0
 10
1.573321566440133
 20
0.7072776656885191
 30
0.0
 10
1.567076757793296
 20
0.7211911382782389
 30
0.0
 10
1.557359346123299
 20
0.7419021079855699
 30
0.0
 10
1.547386637541858
 20
0.7624938644522236
 30
0.0
 10
1.533721545159028
 20
0.7897648262841506
 30
0.0
 10
1.515964288071538
 20
0.8235153294101875
 30
0.0
 10
1.493589480107185
 20
0.8634288282689022
 30
0.0
 10
1.47016598579981
 20
0.9027453508888892
 30
0.0
 10
1.445691400290599
 20
0.9414078907713745
 30
0.0
 10
1.42026784496281
 20
0.9794644634988108
 30
0.0
 10
1.402478250283947
 20
1.004245932293006
 30
0.0
 10
1.39358240056602
 20
1.016638132686676
 30
0.0
  0
SPLINE
  5
6C
330
1F
100
AcDbEntity
  8
0
  6
Continuous
 62
     7
370
    25
100
AcDbSpline
210
0.0
220
0.0
230
1.0
 70
     8
 71
     3
 72
    17
 73
    13
 74
     0
 42
0.00000001
 43
0.00000001
 40
0.0
 40
0.0
 40
0.0
 40
0.0
 40
0.0624954276927843
 40
0.1249872602367781
 40
0.1874864913434472
 40
0.2500041108211502
 40
0.3749738386388233
 40
0.500002737073771
 40
0.6249724648879386
 40
0.750001363326397
 40
0.8749858925052564
 40
1.0
 40
1.0
 40
1.0
 40
1.0
 10
0.1817264879270606
 20
1.7154009687492
 30
0.0
 10
0.1741403572044637
 20
1.716175277703339
 30
0.0
 10
0.1589685321634951
 20
1.717723851068265
 30
0.0
 10
0.1361736004249427
 20
1.719663810556681
 30
0.0
 10
0.1133542619255531
 20
1.721323069813941
 30
0.0
 10
0.0829043700020534
 20
1.723124233581313
 30
0.0
 10
0.0447969483606502
 20
1.72462124940504
 30
0.0
 10
-0.0009565595875286
 20
1.725200846732456
 30
0.0
 10
-0.0467174141185979
 20
1.724573766926915
 30
0.0
 10
-0.0924374485866969
 20
1.722709424069997
 30
0.0
 10
-0.1381071850130823
 20
1.719720265665291
 30
0.0
 10
-0.1684633638713813
 20
1.716704759147494
 30
0.0
 10
-0.1836432490796182
 20
1.715196827500413
 30
0.0
  0
SPLINE
  5
70
330
1F
100
AcDbEntity
  8
0
  6
Continuous
 62
     7
370
    25
100
AcDbSpline
210
0.0
220
0.0
230
1.0
 70
     8
 71
     3
 72
    17
 73
    13
 74
     0
 42
0.00000001
 43
0.00000001
 40
0.0
 40
0.0
 40
0.0
 40
0.0
 40
0.0624954276955309
 40
0.1249872602404397
 40
0.1874864913461944
 40
0.2500041108211533
 40
0.3749738386424851
 40
0.5000027370737715
 40
0.6249724648879904
 40
0.7500013633263972
 40
0.8749858925053058
 40
1.0
 40
1.0
 40
1.0
 40
1.0
 10
-1.394717572649723
 20
1.015080239459948
 30
0.0
 10
-1.399181209235881
 20
1.008897612014549
 30
0.0
 10
-1.40810822563028
 20
0.9965327127893998
 30
0.0
 10
-1.421185745699038
 20
0.9777617025702205
 30
0.0
 10
-1.434032375616796
 20
0.9588292053610993
 30
0.0
 10
-1.450817175157395
 20
0.9333594072964972
 30
0.0
 10
-1.471167339711095
 20
0.9011059199944412
 30
0.0
 10
-1.494546039694736
 20
0.8617720184627922
 30
0.0
 10
-1.516883399918239
 20
0.8218284160376131
 30
0.0
 10
-1.538128848876839
 20
0.7813015332978762
 30
0.0
 10
-1.558375029975616
 20
0.740255802166139
 30
0.0
 10
-1.570941614155075
 20
0.712458826854129
 30
0.0
 10
-1.577225649645649
 20
0.6985586948137295
 30
0.0
  0
SPLINE
  5
74
330
1F
100
AcDbEntity
  8
0
  6
Continuous
 62
     7
370
    25
100
AcDbSpline
210
0.0
220
0.0
230
1.0
 70
     8
 71
     3
 72
    17
 73
    13
 74
     0
 42
0.00000001
 43
0.00000001
 40
0.0
 40
0.0
 40
0.0
 40
0.0
 40
0.0624954276928186
 40
0.1249872602368234
 40
0.1874864913434809
 40
0.2500041108211502
 40
0.3749738386463054
 40
0.5000027370737773
 40
0.6249724648918099
 40
0.7500013633263946
 40
0.8749858925016948
 40
1.0
 40
1.0
 40
1.0
 40
1.0
 10
-1.576444060576766
 20
-0.7003207292892578
 30
0.0
 10
-1.573321566440128
 20
-0.7072776656885297
 30
0.0
 10
-1.56707675779329
 20
-0.7211911382782489
 30
0.0
 10
-1.557359346123293
 20
-0.741902107985579
 30
0.0
 10
-1.547386637541854
 20
-0.7624938644522343
 30
0.0
 10
-1.533721545158602
 20
-0.7897648262849642
 30
0.0
 10
-1.515964288071203
 20
-0.8235153294110511
 30
0.0
 10
-1.493589480106271
 20
-0.8634288282704822
 30
0.0
 10
-1.47016598579923
 20
-0.9027453508896113
 30
0.0
 10
-1.445691400290114
 20
-0.9414078907721547
 30
0.0
 10
-1.420267844962796
 20
-0.9794644634988161
 30
0.0
 10
-1.402478250283937
 20
-1.004245932293014
 30
0.0
 10
-1.393582400566013
 20
-1.016638132686685
 30
0.0
  0
CIRCLE
  5
183
330
1F
100
AcDbEntity
  8
0
  6
Continuous
 62
     7
370
    25
100
AcDbCircle
 10
-1.4289419162
 20
0.825
 30
0.0
 40
0.0499999999999999
  0
CIRCLE
  5
185
330
1F
100
AcDbEntity
  8
0
  6
Continuous
 62
     7
370
    25
100
AcDbCircle
 10
0.0
 20
1.65
 30
0.0
 40
0.0500000000000003
  0
CIRCLE
  5
187
330
1F
100
AcDbEntity
  8
0
  6
Continuous
 62
     7
370
    25
100
AcDbCircle
 10
-1.4289419162
 20
-0.825
 30
0.0
 40
0.05
  0
CIRCLE
  5
189
330
1F
100
AcDbEntity
  8
0
  6
Continuous
 62
     7
370
    25
100
AcDbCircle
 10
1.4289419162
 20
0.825
 30
0.0
 40
0.0500000000000002
  0
CIRCLE
  5
18B
330
1F
100
AcDbEntity
  8
0
  6
Continuous
 62
     7
370
    25
100
AcDbCircle
 10
1.4289419162
 20
-0.825
 30
0.0
 40
0.0499999999999999
  0
CIRCLE
  5
18D
330
1F
100
AcDbEntity
  8
0
  6
Continuous
 62
     7
370
    25
100
AcDbCircle
 10
0.0
 20
-1.65
 30
0.0
 40
0.0500000000000003
  0
LINE
  5
18F
330
1F
100
AcDbEntity
  8
0
  6
Continuous
 62
     7
370
    25
100
AcDbLine
 10
1.7875
 20
0.05
 30
0.0
 11
1.7875
 21
-0.05
 31
0.0
  0
LINE
  5
190
330
1F
100
AcDbEntity
  8
0
  6
Continuous
 62
     7
370
    25
100
AcDbLine
 10
2.1875
 20
-0.05
 30
0.0
 11
1.7875
 21
-0.05
 31
0.0
  0
LINE
  5
191
330
1F
100
AcDbEntity
  8
0
  6
Continuous
 62
     7
370
    25
100
AcDbLine
 10
2.1875
 20
0.05
 30
0.0
 11
2.1875
 21
-0.05
 31
0.0
  0
LINE
  5
192
330
1F
100
AcDbEntity
  8
0
  6
Continuous
 62
     7
370
    25
100
AcDbLine
 10
2.1875
 20
0.05
 30
0.0
 11
1.7875
 21
0.05
 31
0.0
  0
LINE
  5
193
330
1F
100
AcDbEntity
  8
0
  6
Continuous
 62
     7
370
    25
100
AcDbLine
 10
1.7724814648
 20
0.2365707229
 30
0.0
 11
1.7829343111
 21
0.1371185333
 31
0.0
  0
LINE
  5
194
330
1F
100
AcDbEntity
  8
0
  6
Continuous
 62
     7
370
    25
100
AcDbLine
 10
2.1807430693
 20
0.1789299186
 30
0.0
 11
1.7829343111
 21
0.1371185333
 31
0.0
  0
LINE
  5
195
330
1F
100
AcDbEntity
  8
0
  6
Continuous
 62
     7
370
    25
100
AcDbLine
 10
2.170290223
 20
0.2783821082
 30
0.0
 11
2.1807430693
 21
0.1789299186
 31
0.0
  0
LINE
  5
196
330
1F
100
AcDbEntity
  8
0
  6
Continuous
 62
     7
370
    25
100
AcDbLine
 10
2.170290223
 20
0.2783821082
 30
0.0
 11
1.7724814648
 21
0.2365707229
 31
0.0
  0
LINE
  5
197
330
1F
100
AcDbEntity
  8
0
  6
Continuous
 62
     7
370
    25
100
AcDbLine
 10
0.5999207033
 20
-1.6845626732
 30
0.0
 11
0.5048150516
 21
-1.7154643726
 31
0.0
  0
LINE
  5
198
330
1F
100
AcDbEntity
  8
0
  6
Continuous
 62
     7
370
    25
100
AcDbLine
 10
0.6284218494
 20
-2.0958869791
 30
0.0
 11
0.5048150516
 21
-1.7154643726
 31
0.0
  0
LINE
  5
199
330
1F
100
AcDbEntity
  8
0
  6
Continuous
 62
     7
370
    25
100
AcDbLine
 10
0.723527501
 20
-2.0649852797
 30
0.0
 11
0.6284218494
 21
-2.0958869791
 31
0.0
  0
LINE
  5
19A
330
1F
100
AcDbEntity
  8
0
  6
Continuous
 62
     7
370
    25
100
AcDbLine
 10
0.723527501
 20
-2.0649852797
 30
0.0
 11
0.5999207033
 21
-1.6845626732
 31
0.0
  0
LINE
  5
19B
330
1F
100
AcDbEntity
  8
0
  6
Continuous
 62
     7
370
    25
100
AcDbLine
 10
0.7727190224
 20
-1.6126256734
 30
0.0
 11
0.6813644766
 21
-1.6532993377
 31
0.0
  0
LINE
  5
19C
330
1F
100
AcDbEntity
  8
0
  6
Continuous
 62
     7
370
    25
100
AcDbLine
 10
0.8440591338
 20
-2.0187175207
 30
0.0
 11
0.6813644766
 21
-1.6532993377
 31
0.0
  0
LINE
  5
19D
330
1F
100
AcDbEntity
  8
0
  6
Continuous
 62
     7
370
    25
100
AcDbLine
 10
0.9354136796
 20
-1.9780438564
 30
0.0
 11
0.8440591338
 21
-2.0187175207
 31
0.0
  0
LINE
  5
19E
330
1F
100
AcDbEntity
  8
0
  6
Continuous
 62
     7
370
    25
100
AcDbLine
 10
0.9354136796
 20
-1.9780438564
 30
0.0
 11
0.7727190224
 21
-1.6126256734
 31
0.0
  0
LINE
  5
19F
330
1F
100
AcDbEntity
  8
0
  6
Continuous
 62
     7
370
    25
100
AcDbLine
 10
0.4205495274
 20
-1.7380432518
 30
0.0
 11
0.3227347673
 21
-1.7588344209
 31
0.0
  0
LINE
  5
1A0
330
1F
100
AcDbEntity
  8
0
  6
Continuous
 62
     7
370
    25
100
AcDbLine
 10
0.4058994436
 20
-2.1500934611
 30
0.0
 11
0.3227347673
 21
-1.7588344209
 31
0.0
  0
LINE
  5
1A1
330
1F
100
AcDbEntity
  8
0
  6
Continuous
 62
     7
370
    25
100
AcDbLine
 10
0.5037142037
 20
-2.1293022921
 30
0.0
 11
0.4058994436
 21
-2.1500934611
 31
0.0
  0
LINE
  5
1A2
330
1F
100
AcDbEntity
  8
0
  6
Continuous
 62
     7
370
    25
100
AcDbLine
 10
0.5037142037
 20
-2.1293022921
 30
0.0
 11
0.4205495274
 21
-1.7380432518
 31
0.0
  0
LINE
  5
1A3
330
1F
100
AcDbEntity
  8
0
  6
Continuous
 62
     7
370
    25
100
AcDbLine
 10
-0.3227347673
 20
-1.7588344209
 30
0.0
 11
-0.4205495274
 21
-1.7380432518
 31
0.0
  0
LINE
  5
1A4
330
1F
100
AcDbEntity
  8
0
  6
Continuous
 62
     7
370
    25
100
AcDbLine
 10
-0.5037142037
 20
-2.1293022921
 30
0.0
 11
-0.4205495274
 21
-1.7380432518
 31
0.0
  0
LINE
  5
1A5
330
1F
100
AcDbEntity
  8
0
  6
Continuous
 62
     7
370
    25
100
AcDbLine
 10
-0.4058994436
 20
-2.1500934611
 30
0.0
 11
-0.5037142037
 21
-2.1293022921
 31
0.0
  0
LINE
  5
1A6
330
1F
100
AcDbEntity
  8
0
  6
Continuous
 62
     7
370
    25
100
AcDbLine
 10
-0.4058994436
 20
-2.1500934611
 30
0.0
 11
-0.3227347673
 21
-1.7588344209
 31
0.0
  0
LINE
  5
1A7
330
1F
100
AcDbEntity
  8
0
  6
Continuous
 62
     7
370
    25
100
AcDbLine
 10
-0.5048150516
 20
-1.7154643726
 30
0.0
 11
-0.5999207033
 21
-1.6845626732
 31
0.0
  0
LINE
  5
1A8
330
1F
100
AcDbEntity
  8
0
  6
Continuous
 62
     7
370
    25
100
AcDbLine
 10
-0.723527501
 20
-2.0649852797
 30
0.0
 11
-0.5999207033
 21
-1.6845626732
 31
0.0
  0
LINE
  5
1A9
330
1F
100
AcDbEntity
  8
0
  6
Continuous
 62
     7
370
    25
100
AcDbLine
 10
-0.6284218494
 20
-2.0958869791
 30
0.0
 11
-0.723527501
 21
-2.0649852797
 31
0.0
  0
LINE
  5
1AA
330
1F
100
AcDbEntity
  8
0
  6
Continuous
 62
     7
370
    25
100
AcDbLine
 10
-0.6284218494
 20
-2.0958869791
 30
0.0
 11
-0.5048150516
 21
-1.7154643726
 31
0.0
  0
LINE
  5
1AB
330
1F
100
AcDbEntity
  8
0
  6
Continuous
 62
     7
370
    25
100
AcDbLine
 10
-1.2949148452
 20
-1.2332282001
 30
0.0
 11
-1.3618279059
 21
-1.1589137176
 31
0.0
  0
LINE
  5
1AC
330
1F
100
AcDbEntity
  8
0
  6
Continuous
 62
     7
370
    25
100
AcDbLine
 10
-1.659085836
 20
-1.4265659601
 30
0.0
 11
-1.3618279059
 21
-1.1589137176
 31
0.0
  0
LINE
  5
1AD
330
1F
100
AcDbEntity
  8
0
  6
Continuous
 62
     7
370
    25
100
AcDbLine
 10
-1.5921727754
 20
-1.5008804427
 30
0.0
 11
-1.659085836
 21
-1.4265659601
 31
0.0
  0
LINE
  5
1AE
330
1F
100
AcDbEntity
  8
0
  6
Continuous
 62
     7
370
    25
100
AcDbLine
 10
-1.5921727754
 20
-1.5008804427
 30
0.0
 11
-1.2949148452
 21
-1.2332282001
 31
0.0
  0
LINE
  5
1AF
330
1F
100
AcDbEntity
  8
0
  6
Continuous
 62
     7
370
    25
100
AcDbLine
 10
-0.8504487298
 20
-1.5730204093
 30
0.0
 11
-0.9370512702
 21
-1.5230204093
 31
0.0
  0
LINE
  5
1B0
330
1F
100
AcDbEntity
  8
0
  6
Continuous
 62
     7
370
    25
100
AcDbLine
 10
-1.1370512702
 20
-1.8694305708
 30
0.0
 11
-0.9370512702
 21
-1.5230204093
 31
0.0
  0
LINE
  5
1B1
330
1F
100
AcDbEntity
  8
0
  6
Continuous
 62
     7
370
    25
100
AcDbLine
 10
-1.0504487298
 20
-1.9194305708
 30
0.0
 11
-1.1370512702
 21
-1.8694305708
 31
0.0
  0
LINE
  5
1B2
330
1F
100
AcDbEntity
  8
0
  6
Continuous
 62
     7
370
    25
100
AcDbLine
 10
-1.0504487298
 20
-1.9194305708
 30
0.0
 11
-0.8504487298
 21
-1.5730204093
 31
0.0
  0
LINE
  5
1B3
330
1F
100
AcDbEntity
  8
0
  6
Continuous
 62
     7
370
    25
100
AcDbLine
 10
-0.6813644766
 20
-1.6532993377
 30
0.0
 11
-0.7727190224
 21
-1.6126256734
 31
0.0
  0
LINE
  5
1B4
330
1F
100
AcDbEntity
  8
0
  6
Continuous
 62
     7
370
    25
100
AcDbLine
 10
-0.9354136796
 20
-1.9780438564
 30
0.0
 11
-0.7727190224
 21
-1.6126256734
 31
0.0
  0
LINE
  5
1B5
330
1F
100
AcDbEntity
  8
0
  6
Continuous
 62
     7
370
    25
100
AcDbLine
 10
-0.8440591338
 20
-2.0187175207
 30
0.0
 11
-0.9354136796
 21
-1.9780438564
 31
0.0
  0
LINE
  5
1B6
330
1F
100
AcDbEntity
  8
0
  6
Continuous
 62
     7
370
    25
100
AcDbLine
 10
-0.8440591338
 20
-2.0187175207
 30
0.0
 11
-0.6813644766
 21
-1.6532993377
 31
0.0
  0
LINE
  5
1B7
330
1F
100
AcDbEntity
  8
0
  6
Continuous
 62
     7
370
    25
100
AcDbLine
 10
-1.1589137176
 20
-1.3618279059
 30
0.0
 11
-1.2332282001
 21
-1.2949148452
 31
0.0
  0
LINE
  5
1B8
330
1F
100
AcDbEntity
  8
0
  6
Continuous
 62
     7
370
    25
100
AcDbLine
 10
-1.5008804427
 20
-1.5921727754
 30
0.0
 11
-1.2332282001
 21
-1.2949148452
 31
0.0
  0
LINE
  5
1B9
330
1F
100
AcDbEntity
  8
0
  6
Continuous
 62
     7
370
    25
100
AcDbLine
 10
-1.4265659601
 20
-1.659085836
 30
0.0
 11
-1.5008804427
 21
-1.5921727754
 31
0.0
  0
LINE
  5
1BA
330
1F
100
AcDbEntity
  8
0
  6
Continuous
 62
     7
370
    25
100
AcDbLine
 10
-1.4265659601
 20
-1.659085836
 30
0.0
 11
-1.1589137176
 21
-1.3618279059
 31
0.0
  0
LINE
  5
1BB
330
1F
100
AcDbEntity
  8
0
  6
Continuous
 62
     7
370
    25
100
AcDbLine
 10
-1.0102152888
 20
-1.4755071401
 30
0.0
 11
-1.0911169882
 21
-1.4167286148
 31
0.0
  0
LINE
  5
1BC
330
1F
100
AcDbEntity
  8
0
  6
Continuous
 62
     7
370
    25
100
AcDbLine
 10
-1.3262310891
 20
-1.7403354126
 30
0.0
 11
-1.0911169882
 21
-1.4167286148
 31
0.0
  0
LINE
  5
1BD
330
1F
100
AcDbEntity
  8
0
  6
Continuous
 62
     7
370
    25
100
AcDbLine
 10
-1.2453293897
 20
-1.7991139378
 30
0.0
 11
-1.3262310891
 21
-1.7403354126
 31
0.0
  0
LINE
  5
1BE
330
1F
100
AcDbEntity
  8
0
  6
Continuous
 62
     7
370
    25
100
AcDbLine
 10
-1.2453293897
 20
-1.7991139378
 30
0.0
 11
-1.0102152888
 21
-1.4755071401
 31
0.0
  0
LINE
  5
1BF
330
1F
100
AcDbEntity
  8
0
  6
Continuous
 62
     7
370
    25
100
AcDbLine
 10
1.7154643726
 20
-0.5048150516
 30
0.0
 11
1.6845626732
 21
-0.5999207033
 31
0.0
  0
LINE
  5
1C0
330
1F
100
AcDbEntity
  8
0
  6
Continuous
 62
     7
370
    25
100
AcDbLine
 10
2.0649852797
 20
-0.723527501
 30
0.0
 11
1.6845626732
 21
-0.5999207033
 31
0.0
  0
LINE
  5
1C1
330
1F
100
AcDbEntity
  8
0
  6
Continuous
 62
     7
370
    25
100
AcDbLine
 10
2.0958869791
 20
-0.6284218494
 30
0.0
 11
2.0649852797
 21
-0.723527501
 31
0.0
  0
LINE
  5
1C2
330
1F
100
AcDbEntity
  8
0
  6
Continuous
 62
     7
370
    25
100
AcDbLine
 10
2.0958869791
 20
-0.6284218494
 30
0.0
 11
1.7154643726
 21
-0.5048150516
 31
0.0
  0
LINE
  5
1C3
330
1F
100
AcDbEntity
  8
0
  6
Continuous
 62
     7
370
    25
100
AcDbLine
 10
1.0911169882
 20
-1.4167286148
 30
0.0
 11
1.0102152888
 21
-1.4755071401
 31
0.0
  0
LINE
  5
1C4
330
1F
100
AcDbEntity
  8
0
  6
Continuous
 62
     7
370
    25
100
AcDbLine
 10
1.2453293897
 20
-1.7991139378
 30
0.0
 11
1.0102152888
 21
-1.4755071401
 31
0.0
  0
LINE
  5
1C5
330
1F
100
AcDbEntity
  8
0
  6
Continuous
 62
     7
370
    25
100
AcDbLine
 10
1.3262310891
 20
-1.7403354126
 30
0.0
 11
1.2453293897
 21
-1.7991139378
 31
0.0
  0
LINE
  5
1C6
330
1F
100
AcDbEntity
  8
0
  6
Continuous
 62
     7
370
    25
100
AcDbLine
 10
1.3262310891
 20
-1.7403354126
 30
0.0
 11
1.0911169882
 21
-1.4167286148
 31
0.0
  0
LINE
  5
1C7
330
1F
100
AcDbEntity
  8
0
  6
Continuous
 62
     7
370
    25
100
AcDbLine
 10
0.9370512702
 20
-1.5230204093
 30
0.0
 11
0.8504487298
 21
-1.5730204093
 31
0.0
  0
LINE
  5
1C8
330
1F
100
AcDbEntity
  8
0
  6
Continuous
 62
     7
370
    25
100
AcDbLine
 10
1.0504487298
 20
-1.9194305708
 30
0.0
 11
0.8504487298
 21
-1.5730204093
 31
0.0
  0
LINE
  5
1C9
330
1F
100
AcDbEntity
  8
0
  6
Continuous
 62
     7
370
    25
100
AcDbLine
 10
1.1370512702
 20
-1.8694305708
 30
0.0
 11
1.0504487298
 21
-1.9194305708
 31
0.0
  0
LINE
  5
1CA
330
1F
100
AcDbEntity
  8
0
  6
Continuous
 62
     7
370
    25
100
AcDbLine
 10
1.1370512702
 20
-1.8694305708
 30
0.0
 11
0.9370512702
 21
-1.5230204093
 31
0.0
  0
LINE
  5
1CB
330
1F
100
AcDbEntity
  8
0
  6
Continuous
 62
     7
370
    25
100
AcDbLine
 10
1.3618279059
 20
-1.1589137176
 30
0.0
 11
1.2949148452
 21
-1.2332282001
 31
0.0
  0
LINE
  5
1CC
330
1F
100
AcDbEntity
  8
0
  6
Continuous
 62
     7
370
    25
100
AcDbLine
 10
1.5921727754
 20
-1.5008804427
 30
0.0
 11
1.2949148452
 21
-1.2332282001
 31
0.0
  0
LINE
  5
1CD
330
1F
100
AcDbEntity
  8
0
  6
Continuous
 62
     7
370
    25
100
AcDbLine
 10
1.659085836
 20
-1.4265659601
 30
0.0
 11
1.5921727754
 21
-1.5008804427
 31
0.0
  0
LINE
  5
1CE
330
1F
100
AcDbEntity
  8
0
  6
Continuous
 62
     7
370
    25
100
AcDbLine
 10
1.659085836
 20
-1.4265659601
 30
0.0
 11
1.3618279059
 21
-1.1589137176
 31
0.0
  0
LINE
  5
1CF
330
1F
100
AcDbEntity
  8
0
  6
Continuous
 62
     7
370
    25
100
AcDbLine
 10
1.2332282001
 20
-1.2949148452
 30
0.0
 11
1.1589137176
 21
-1.3618279059
 31
0.0
  0
LINE
  5
1D0
330
1F
100
AcDbEntity
  8
0
  6
Continuous
 62
     7
370
    25
100
AcDbLine
 10
1.4265659601
 20
-1.659085836
 30
0.0
 11
1.1589137176
 21
-1.3618279059
 31
0.0
  0
LINE
  5
1D1
330
1F
100
AcDbEntity
  8
0
  6
Continuous
 62
     7
370
    25
100
AcDbLine
 10
1.5008804427
 20
-1.5921727754
 30
0.0
 11
1.4265659601
 21
-1.659085836
 31
0.0
  0
LINE
  5
1D2
330
1F
100
AcDbEntity
  8
0
  6
Continuous
 62
     7
370
    25
100
AcDbLine
 10
1.5008804427
 20
-1.5921727754
 30
0.0
 11
1.2332282001
 21
-1.2949148452
 31
0.0
  0
LINE
  5
1D3
330
1F
100
AcDbEntity
  8
0
  6
Continuous
 62
     7
370
    25
100
AcDbLine
 10
1.7588344209
 20
-0.3227347673
 30
0.0
 11
1.7380432518
 21
-0.4205495274
 31
0.0
  0
LINE
  5
1D4
330
1F
100
AcDbEntity
  8
0
  6
Continuous
 62
     7
370
    25
100
AcDbLine
 10
2.1293022921
 20
-0.5037142037
 30
0.0
 11
1.7380432518
 21
-0.4205495274
 31
0.0
  0
LINE
  5
1D5
330
1F
100
AcDbEntity
  8
0
  6
Continuous
 62
     7
370
    25
100
AcDbLine
 10
2.1500934611
 20
-0.4058994436
 30
0.0
 11
2.1293022921
 21
-0.5037142037
 31
0.0
  0
LINE
  5
1D6
330
1F
100
AcDbEntity
  8
0
  6
Continuous
 62
     7
370
    25
100
AcDbLine
 10
2.1500934611
 20
-0.4058994436
 30
0.0
 11
1.7588344209
 21
-0.3227347673
 31
0.0
  0
LINE
  5
1D7
330
1F
100
AcDbEntity
  8
0
  6
Continuous
 62
     7
370
    25
100
AcDbLine
 10
1.7829343111
 20
-0.1371185333
 30
0.0
 11
1.7724814648
 21
-0.2365707229
 31
0.0
  0
LINE
  5
1D8
330
1F
100
AcDbEntity
  8
0
  6
Continuous
 62
     7
370
    25
100
AcDbLine
 10
2.170290223
 20
-0.2783821082
 30
0.0
 11
1.7724814648
 21
-0.2365707229
 31
0.0
  0
LINE
  5
1D9
330
1F
100
AcDbEntity
  8
0
  6
Continuous
 62
     7
370
    25
100
AcDbLine
 10
2.1807430693
 20
-0.1789299186
 30
0.0
 11
2.170290223
 21
-0.2783821082
 31
0.0
  0
LINE
  5
1DA
330
1F
100
AcDbEntity
  8
0
  6
Continuous
 62
     7
370
    25
100
AcDbLine
 10
2.1807430693
 20
-0.1789299186
 30
0.0
 11
1.7829343111
 21
-0.1371185333
 31
0.0
  0
LINE
  5
1DB
330
1F
100
AcDbEntity
  8
0
  6
Continuous
 62
     7
370
    25
100
AcDbLine
 10
-1.3618279059
 20
1.1589137176
 30
0.0
 11
-1.2949148452
 21
1.2332282001
 31
0.0
  0
LINE
  5
1DC
330
1F
100
AcDbEntity
  8
0
  6
Continuous
 62
     7
370
    25
100
AcDbLine
 10
-1.5921727754
 20
1.5008804427
 30
0.0
 11
-1.2949148452
 21
1.2332282001
 31
0.0
  0
LINE
  5
1DD
330
1F
100
AcDbEntity
  8
0
  6
Continuous
 62
     7
370
    25
100
AcDbLine
 10
-1.659085836
 20
1.4265659601
 30
0.0
 11
-1.5921727754
 21
1.5008804427
 31
0.0
  0
LINE
  5
1DE
330
1F
100
AcDbEntity
  8
0
  6
Continuous
 62
     7
370
    25
100
AcDbLine
 10
-1.659085836
 20
1.4265659601
 30
0.0
 11
-1.3618279059
 21
1.1589137176
 31
0.0
  0
LINE
  5
1DF
330
1F
100
AcDbEntity
  8
0
  6
Continuous
 62
     7
370
    25
100
AcDbLine
 10
-1.2332282001
 20
1.2949148452
 30
0.0
 11
-1.1589137176
 21
1.3618279059
 31
0.0
  0
LINE
  5
1E0
330
1F
100
AcDbEntity
  8
0
  6
Continuous
 62
     7
370
    25
100
AcDbLine
 10
-1.4265659601
 20
1.659085836
 30
0.0
 11
-1.1589137176
 21
1.3618279059
 31
0.0
  0
LINE
  5
1E1
330
1F
100
AcDbEntity
  8
0
  6
Continuous
 62
     7
370
    25
100
AcDbLine
 10
-1.5008804427
 20
1.5921727754
 30
0.0
 11
-1.4265659601
 21
1.659085836
 31
0.0
  0
LINE
  5
1E2
330
1F
100
AcDbEntity
  8
0
  6
Continuous
 62
     7
370
    25
100
AcDbLine
 10
-1.5008804427
 20
1.5921727754
 30
0.0
 11
-1.2332282001
 21
1.2949148452
 31
0.0
  0
LINE
  5
1E3
330
1F
100
AcDbEntity
  8
0
  6
Continuous
 62
     7
370
    25
100
AcDbLine
 10
-0.7727190224
 20
1.6126256734
 30
0.0
 11
-0.6813644766
 21
1.6532993377
 31
0.0
  0
LINE
  5
1E4
330
1F
100
AcDbEntity
  8
0
  6
Continuous
 62
     7
370
    25
100
AcDbLine
 10
-0.8440591338
 20
2.0187175207
 30
0.0
 11
-0.6813644766
 21
1.6532993377
 31
0.0
  0
LINE
  5
1E5
330
1F
100
AcDbEntity
  8
0
  6
Continuous
 62
     7
370
    25
100
AcDbLine
 10
-0.9354136796
 20
1.9780438564
 30
0.0
 11
-0.8440591338
 21
2.0187175207
 31
0.0
  0
LINE
  5
1E6
330
1F
100
AcDbEntity
  8
0
  6
Continuous
 62
     7
370
    25
100
AcDbLine
 10
-0.9354136796
 20
1.9780438564
 30
0.0
 11
-0.7727190224
 21
1.6126256734
 31
0.0
  0
LINE
  5
1E7
330
1F
100
AcDbEntity
  8
0
  6
Continuous
 62
     7
370
    25
100
AcDbLine
 10
-0.5999207033
 20
1.6845626732
 30
0.0
 11
-0.5048150516
 21
1.7154643726
 31
0.0
  0
LINE
  5
1E8
330
1F
100
AcDbEntity
  8
0
  6
Continuous
 62
     7
370
    25
100
AcDbLine
 10
-0.6284218494
 20
2.0958869791
 30
0.0
 11
-0.5048150516
 21
1.7154643726
 31
0.0
  0
LINE
  5
1E9
330
1F
100
AcDbEntity
  8
0
  6
Continuous
 62
     7
370
    25
100
AcDbLine
 10
-0.723527501
 20
2.0649852797
 30
0.0
 11
-0.6284218494
 21
2.0958869791
 31
0.0
  0
LINE
  5
1EA
330
1F
100
AcDbEntity
  8
0
  6
Continuous
 62
     7
370
    25
100
AcDbLine
 10
-0.723527501
 20
2.0649852797
 30
0.0
 11
-0.5999207033
 21
1.6845626732
 31
0.0
  0
LINE
  5
1EB
330
1F
100
AcDbEntity
  8
0
  6
Continuous
 62
     7
370
    25
100
AcDbLine
 10
-1.0911169882
 20
1.4167286148
 30
0.0
 11
-1.0102152888
 21
1.4755071401
 31
0.0
  0
LINE
  5
1EC
330
1F
100
AcDbEntity
  8
0
  6
Continuous
 62
     7
370
    25
100
AcDbLine
 10
-1.2453293897
 20
1.7991139378
 30
0.0
 11
-1.0102152888
 21
1.4755071401
 31
0.0
  0
LINE
  5
1ED
330
1F
100
AcDbEntity
  8
0
  6
Continuous
 62
     7
370
    25
100
AcDbLine
 10
-1.3262310891
 20
1.7403354126
 30
0.0
 11
-1.2453293897
 21
1.7991139378
 31
0.0
  0
LINE
  5
1EE
330
1F
100
AcDbEntity
  8
0
  6
Continuous
 62
     7
370
    25
100
AcDbLine
 10
-1.3262310891
 20
1.7403354126
 30
0.0
 11
-1.0911169882
 21
1.4167286148
 31
0.0
  0
LINE
  5
1EF
330
1F
100
AcDbEntity
  8
0
  6
Continuous
 62
     7
370
    25
100
AcDbLine
 10
-0.9370512702
 20
1.5230204093
 30
0.0
 11
-0.8504487298
 21
1.5730204093
 31
0.0
  0
LINE
  5
1F0
330
1F
100
AcDbEntity
  8
0
  6
Continuous
 62
     7
370
    25
100
AcDbLine
 10
-1.0504487298
 20
1.9194305708
 30
0.0
 11
-0.8504487298
 21
1.5730204093
 31
0.0
  0
LINE
  5
1F1
330
1F
100
AcDbEntity
  8
0
  6
Continuous
 62
     7
370
    25
100
AcDbLine
 10
-1.1370512702
 20
1.8694305708
 30
0.0
 11
-1.0504487298
 21
1.9194305708
 31
0.0
  0
LINE
  5
1F2
330
1F
100
AcDbEntity
  8
0
  6
Continuous
 62
     7
370
    25
100
AcDbLine
 10
-1.1370512702
 20
1.8694305708
 30
0.0
 11
-0.9370512702
 21
1.5230204093
 31
0.0
  0
LINE
  5
1F3
330
1F
100
AcDbEntity
  8
0
  6
Continuous
 62
     7
370
    25
100
AcDbLine
 10
-1.7154643726
 20
0.5048150516
 30
0.0
 11
-1.6845626732
 21
0.5999207033
 31
0.0
  0
LINE
  5
1F4
330
1F
100
AcDbEntity
  8
0
  6
Continuous
 62
     7
370
    25
100
AcDbLine
 10
-2.0649852797
 20
0.723527501
 30
0.0
 11
-1.6845626732
 21
0.5999207033
 31
0.0
  0
LINE
  5
1F5
330
1F
100
AcDbEntity
  8
0
  6
Continuous
 62
     7
370
    25
100
AcDbLine
 10
-2.0958869791
 20
0.6284218494
 30
0.0
 11
-2.0649852797
 21
0.723527501
 31
0.0
  0
LINE
  5
1F6
330
1F
100
AcDbEntity
  8
0
  6
Continuous
 62
     7
370
    25
100
AcDbLine
 10
-2.0958869791
 20
0.6284218494
 30
0.0
 11
-1.7154643726
 21
0.5048150516
 31
0.0
  0
LINE
  5
1F7
330
1F
100
AcDbEntity
  8
0
  6
Continuous
 62
     7
370
    25
100
AcDbLine
 10
-1.7588344209
 20
0.3227347673
 30
0.0
 11
-1.7380432518
 21
0.4205495274
 31
0.0
  0
LINE
  5
1F8
330
1F
100
AcDbEntity
  8
0
  6
Continuous
 62
     7
370
    25
100
AcDbLine
 10
-2.1293022921
 20
0.5037142037
 30
0.0
 11
-1.7380432518
 21
0.4205495274
 31
0.0
  0
LINE
  5
1F9
330
1F
100
AcDbEntity
  8
0
  6
Continuous
 62
     7
370
    25
100
AcDbLine
 10
-2.1500934611
 20
0.4058994436
 30
0.0
 11
-2.1293022921
 21
0.5037142037
 31
0.0
  0
LINE
  5
1FA
330
1F
100
AcDbEntity
  8
0
  6
Continuous
 62
     7
370
    25
100
AcDbLine
 10
-2.1500934611
 20
0.4058994436
 30
0.0
 11
-1.7588344209
 21
0.3227347673
 31
0.0
  0
LINE
  5
1FB
330
1F
100
AcDbEntity
  8
0
  6
Continuous
 62
     7
370
    25
100
AcDbLine
 10
-1.7829343111
 20
0.1371185333
 30
0.0
 11
-1.7724814648
 21
0.2365707229
 31
0.0
  0
LINE
  5
1FC
330
1F
100
AcDbEntity
  8
0
  6
Continuous
 62
     7
370
    25
100
AcDbLine
 10
-2.170290223
 20
0.2783821082
 30
0.0
 11
-1.7724814648
 21
0.2365707229
 31
0.0
  0
LINE
  5
1FD
330
1F
100
AcDbEntity
  8
0
  6
Continuous
 62
     7
370
    25
100
AcDbLine
 10
-2.1807430693
 20
0.1789299186
 30
0.0
 11
-2.170290223
 21
0.2783821082
 31
0.0
  0
LINE
  5
1FE
330
1F
100
AcDbEntity
  8
0
  6
Continuous
 62
     7
370
    25
100
AcDbLine
 10
-2.1807430693
 20
0.1789299186
 30
0.0
 11
-1.7829343111
 21
0.1371185333
 31
0.0
  0
LINE
  5
1FF
330
1F
100
AcDbEntity
  8
0
  6
Continuous
 62
     7
370
    25
100
AcDbLine
 10
-1.7875
 20
-0.05
 30
0.0
 11
-1.7875
 21
0.05
 31
0.0
  0
LINE
  5
200
330
1F
100
AcDbEntity
  8
0
  6
Continuous
 62
     7
370
    25
100
AcDbLine
 10
-2.1875
 20
0.05
 30
0.0
 11
-1.7875
 21
0.05
 31
0.0
  0
LINE
  5
201
330
1F
100
AcDbEntity
  8
0
  6
Continuous
 62
     7
370
    25
100
AcDbLine
 10
-2.1875
 20
-0.05
 30
0.0
 11
-2.1875
 21
0.05
 31
0.0
  0
LINE
  5
202
330
1F
100
AcDbEntity
  8
0
  6
Continuous
 62
     7
370
    25
100
AcDbLine
 10
-2.1875
 20
-0.05
 30
0.0
 11
-1.7875
 21
-0.05
 31
0.0
  0
LINE
  5
203
330
1F
100
AcDbEntity
  8
0
  6
Continuous
 62
     7
370
    25
100
AcDbLine
 10
-1.7724814648
 20
-0.2365707229
 30
0.0
 11
-1.7829343111
 21
-0.1371185333
 31
0.0
  0
LINE
  5
204
330
1F
100
AcDbEntity
  8
0
  6
Continuous
 62
     7
370
    25
100
AcDbLine
 10
-2.1807430693
 20
-0.1789299186
 30
0.0
 11
-1.7829343111
 21
-0.1371185333
 31
0.0
  0
LINE
  5
205
330
1F
100
AcDbEntity
  8
0
  6
Continuous
 62
     7
370
    25
100
AcDbLine
 10
-2.170290223
 20
-0.2783821082
 30
0.0
 11
-2.1807430693
 21
-0.1789299186
 31
0.0
  0
LINE
  5
206
330
1F
100
AcDbEntity
  8
0
  6
Continuous
 62
     7
370
    25
100
AcDbLine
 10
-2.170290223
 20
-0.2783821082
 30
0.0
 11
-1.7724814648
 21
-0.2365707229
 31
0.0
  0
LINE
  5
207
330
1F
100
AcDbEntity
  8
0
  6
Continuous
 62
     7
370
    25
100
AcDbLine
 10
-1.7380432518
 20
-0.4205495274
 30
0.0
 11
-1.7588344209
 21
-0.3227347673
 31
0.0
  0
LINE
  5
208
330
1F
100
AcDbEntity
  8
0
  6
Continuous
 62
     7
370
    25
100
AcDbLine
 10
-2.1500934611
 20
-0.4058994436
 30
0.0
 11
-1.7588344209
 21
-0.3227347673
 31
0.0
  0
LINE
  5
209
330
1F
100
AcDbEntity
  8
0
  6
Continuous
 62
     7
370
    25
100
AcDbLine
 10
-2.1293022921
 20
-0.5037142037
 30
0.0
 11
-2.1500934611
 21
-0.4058994436
 31
0.0
  0
LINE
  5
20A
330
1F
100
AcDbEntity
  8
0
  6
Continuous
 62
     7
370
    25
100
AcDbLine
 10
-2.1293022921
 20
-0.5037142037
 30
0.0
 11
-1.7380432518
 21
-0.4205495274
 31
0.0
  0
LINE
  5
20B
330
1F
100
AcDbEntity
  8
0
  6
Continuous
 62
     7
370
    25
100
AcDbLine
 10
-1.6845626732
 20
-0.5999207033
 30
0.0
 11
-1.7154643726
 21
-0.5048150516
 31
0.0
  0
LINE
  5
20C
330
1F
100
AcDbEntity
  8
0
  6
Continuous
 62
     7
370
    25
100
AcDbLine
 10
-2.0958869791
 20
-0.6284218494
 30
0.0
 11
-1.7154643726
 21
-0.5048150516
 31
0.0
  0
LINE
  5
20D
330
1F
100
AcDbEntity
  8
0
  6
Continuous
 62
     7
370
    25
100
AcDbLine
 10
-2.0649852797
 20
-0.723527501
 30
0.0
 11
-2.0958869791
 21
-0.6284218494
 31
0.0
  0
LINE
  5
20E
330
1F
100
AcDbEntity
  8
0
  6
Continuous
 62
     7
370
    25
100
AcDbLine
 10
-2.0649852797
 20
-0.723527501
 30
0.0
 11
-1.6845626732
 21
-0.5999207033
 31
0.0
  0
LINE
  5
20F
330
1F
100
AcDbEntity
  8
0
  6
Continuous
 62
     7
370
    25
100
AcDbLine
 10
1.2949148452
 20
1.2332282001
 30
0.0
 11
1.3618279059
 21
1.1589137176
 31
0.0
  0
LINE
  5
210
330
1F
100
AcDbEntity
  8
0
  6
Continuous
 62
     7
370
    25
100
AcDbLine
 10
1.659085836
 20
1.4265659601
 30
0.0
 11
1.3618279059
 21
1.1589137176
 31
0.0
  0
LINE
  5
211
330
1F
100
AcDbEntity
  8
0
  6
Continuous
 62
     7
370
    25
100
AcDbLine
 10
1.5921727754
 20
1.5008804427
 30
0.0
 11
1.659085836
 21
1.4265659601
 31
0.0
  0
LINE
  5
212
330
1F
100
AcDbEntity
  8
0
  6
Continuous
 62
     7
370
    25
100
AcDbLine
 10
1.5921727754
 20
1.5008804427
 30
0.0
 11
1.2949148452
 21
1.2332282001
 31
0.0
  0
LINE
  5
213
330
1F
100
AcDbEntity
  8
0
  6
Continuous
 62
     7
370
    25
100
AcDbLine
 10
1.0102152888
 20
1.4755071401
 30
0.0
 11
1.0911169882
 21
1.4167286148
 31
0.0
  0
LINE
  5
214
330
1F
100
AcDbEntity
  8
0
  6
Continuous
 62
     7
370
    25
100
AcDbLine
 10
1.3262310891
 20
1.7403354126
 30
0.0
 11
1.0911169882
 21
1.4167286148
 31
0.0
  0
LINE
  5
215
330
1F
100
AcDbEntity
  8
0
  6
Continuous
 62
     7
370
    25
100
AcDbLine
 10
1.2453293897
 20
1.7991139378
 30
0.0
 11
1.3262310891
 21
1.7403354126
 31
0.0
  0
LINE
  5
216
330
1F
100
AcDbEntity
  8
0
  6
Continuous
 62
     7
370
    25
100
AcDbLine
 10
1.2453293897
 20
1.7991139378
 30
0.0
 11
1.0102152888
 21
1.4755071401
 31
0.0
  0
LINE
  5
217
330
1F
100
AcDbEntity
  8
0
  6
Continuous
 62
     7
370
    25
100
AcDbLine
 10
1.1589137176
 20
1.3618279059
 30
0.0
 11
1.2332282001
 21
1.2949148452
 31
0.0
  0
LINE
  5
218
330
1F
100
AcDbEntity
  8
0
  6
Continuous
 62
     7
370
    25
100
AcDbLine
 10
1.5008804427
 20
1.5921727754
 30
0.0
 11
1.2332282001
 21
1.2949148452
 31
0.0
  0
LINE
  5
219
330
1F
100
AcDbEntity
  8
0
  6
Continuous
 62
     7
370
    25
100
AcDbLine
 10
1.4265659601
 20
1.659085836
 30
0.0
 11
1.5008804427
 21
1.5921727754
 31
0.0
  0
LINE
  5
21A
330
1F
100
AcDbEntity
  8
0
  6
Continuous
 62
     7
370
    25
100
AcDbLine
 10
1.4265659601
 20
1.659085836
 30
0.0
 11
1.1589137176
 21
1.3618279059
 31
0.0
  0
LINE
  5
21B
330
1F
100
AcDbEntity
  8
0
  6
Continuous
 62
     7
370
    25
100
AcDbLine
 10
1.7380432518
 20
0.4205495274
 30
0.0
 11
1.7588344209
 21
0.3227347673
 31
0.0
  0
LINE
  5
21C
330
1F
100
AcDbEntity
  8
0
  6
Continuous
 62
     7
370
    25
100
AcDbLine
 10
2.1500934611
 20
0.4058994436
 30
0.0
 11
1.7588344209
 21
0.3227347673
 31
0.0
  0
LINE
  5
21D
330
1F
100
AcDbEntity
  8
0
  6
Continuous
 62
     7
370
    25
100
AcDbLine
 10
2.1293022921
 20
0.5037142037
 30
0.0
 11
2.1500934611
 21
0.4058994436
 31
0.0
  0
LINE
  5
21E
330
1F
100
AcDbEntity
  8
0
  6
Continuous
 62
     7
370
    25
100
AcDbLine
 10
2.1293022921
 20
0.5037142037
 30
0.0
 11
1.7380432518
 21
0.4205495274
 31
0.0
  0
LINE
  5
21F
330
1F
100
AcDbEntity
  8
0
  6
Continuous
 62
     7
370
    25
100
AcDbLine
 10
1.6845626732
 20
0.5999207033
 30
0.0
 11
1.7154643726
 21
0.5048150516
 31
0.0
  0
LINE
  5
220
330
1F
100
AcDbEntity
  8
0
  6
Continuous
 62
     7
370
    25
100
AcDbLine
 10
2.0958869791
 20
0.6284218494
 30
0.0
 11
1.7154643726
 21
0.5048150516
 31
0.0
  0
LINE
  5
221
330
1F
100
AcDbEntity
  8
0
  6
Continuous
 62
     7
370
    25
100
AcDbLine
 10
2.0649852797
 20
0.723527501
 30
0.0
 11
2.0958869791
 21
0.6284218494
 31
0.0
  0
LINE
  5
222
330
1F
100
AcDbEntity
  8
0
  6
Continuous
 62
     7
370
    25
100
AcDbLine
 10
2.0649852797
 20
0.723527501
 30
0.0
 11
1.6845626732
 21
0.5999207033
 31
0.0
  0
LINE
  5
223
330
1F
100
AcDbEntity
  8
0
  6
Continuous
 62
     7
370
    25
100
AcDbLine
 10
0.3227347673
 20
1.7588344209
 30
0.0
 11
0.4205495274
 21
1.7380432518
 31
0.0
  0
LINE
  5
224
330
1F
100
AcDbEntity
  8
0
  6
Continuous
 62
     7
370
    25
100
AcDbLine
 10
0.5037142037
 20
2.1293022921
 30
0.0
 11
0.4205495274
 21
1.7380432518
 31
0.0
  0
LINE
  5
225
330
1F
100
AcDbEntity
  8
0
  6
Continuous
 62
     7
370
    25
100
AcDbLine
 10
0.4058994436
 20
2.1500934611
 30
0.0
 11
0.5037142037
 21
2.1293022921
 31
0.0
  0
LINE
  5
226
330
1F
100
AcDbEntity
  8
0
  6
Continuous
 62
     7
370
    25
100
AcDbLine
 10
0.4058994436
 20
2.1500934611
 30
0.0
 11
0.3227347673
 21
1.7588344209
 31
0.0
  0
LINE
  5
227
330
1F
100
AcDbEntity
  8
0
  6
Continuous
 62
     7
370
    25
100
AcDbLine
 10
0.5048150516
 20
1.7154643726
 30
0.0
 11
0.5999207033
 21
1.6845626732
 31
0.0
  0
LINE
  5
228
330
1F
100
AcDbEntity
  8
0
  6
Continuous
 62
     7
370
    25
100
AcDbLine
 10
0.723527501
 20
2.0649852797
 30
0.0
 11
0.5999207033
 21
1.6845626732
 31
0.0
  0
LINE
  5
229
330
1F
100
AcDbEntity
  8
0
  6
Continuous
 62
     7
370
    25
100
AcDbLine
 10
0.6284218494
 20
2.0958869791
 30
0.0
 11
0.723527501
 21
2.0649852797
 31
0.0
  0
LINE
  5
22A
330
1F
100
AcDbEntity
  8
0
  6
Continuous
 62
     7
370
    25
100
AcDbLine
 10
0.6284218494
 20
2.0958869791
 30
0.0
 11
0.5048150516
 21
1.7154643726
 31
0.0
  0
LINE
  5
22B
330
1F
100
AcDbEntity
  8
0
  6
Continuous
 62
     7
370
    25
100
AcDbLine
 10
0.8504487298
 20
1.5730204093
 30
0.0
 11
0.9370512702
 21
1.5230204093
 31
0.0
  0
LINE
  5
22C
330
1F
100
AcDbEntity
  8
0
  6
Continuous
 62
     7
370
    25
100
AcDbLine
 10
1.1370512702
 20
1.8694305708
 30
0.0
 11
0.9370512702
 21
1.5230204093
 31
0.0
  0
LINE
  5
22D
330
1F
100
AcDbEntity
  8
0
  6
Continuous
 62
     7
370
    25
100
AcDbLine
 10
1.0504487298
 20
1.9194305708
 30
0.0
 11
1.1370512702
 21
1.8694305708
 31
0.0
  0
LINE
  5
22E
330
1F
100
AcDbEntity
  8
0
  6
Continuous
 62
     7
370
    25
100
AcDbLine
 10
1.0504487298
 20
1.9194305708
 30
0.0
 11
0.8504487298
 21
1.5730204093
 31
0.0
  0
LINE
  5
22F
330
1F
100
AcDbEntity
  8
0
  6
Continuous
 62
     7
370
    25
100
AcDbLine
 10
0.6813644766
 20
1.6532993377
 30
0.0
 11
0.7727190224
 21
1.6126256734
 31
0.0
  0
LINE
  5
230
330
1F
100
AcDbEntity
  8
0
  6
Continuous
 62
     7
370
    25
100
AcDbLine
 10
0.9354136796
 20
1.9780438564
 30
0.0
 11
0.7727190224
 21
1.6126256734
 31
0.0
  0
LINE
  5
231
330
1F
100
AcDbEntity
  8
0
  6
Continuous
 62
     7
370
    25
100
AcDbLine
 10
0.8440591338
 20
2.0187175207
 30
0.0
 11
0.9354136796
 21
1.9780438564
 31
0.0
  0
LINE
  5
232
330
1F
100
AcDbEntity
  8
0
  6
Continuous
 62
     7
370
    25
100
AcDbLine
 10
0.8440591338
 20
2.0187175207
 30
0.0
 11
0.6813644766
 21
1.6532993377
 31
0.0
  0
LINE
  5
233
330
1F
100
AcDbEntity
  8
0
  6
Continuous
 62
     7
370
    25
100
AcDbLine
 10
-0.4205495274
 20
1.7380432518
 30
0.0
 11
-0.3227347673
 21
1.7588344209
 31
0.0
  0
LINE
  5
234
330
1F
100
AcDbEntity
  8
0
  6
Continuous
 62
     7
370
    25
100
AcDbLine
 10
-0.4058994436
 20
2.1500934611
 30
0.0
 11
-0.3227347673
 21
1.7588344209
 31
0.0
  0
LINE
  5
235
330
1F
100
AcDbEntity
  8
0
  6
Continuous
 62
     7
370
    25
100
AcDbLine
 10
-0.5037142037
 20
2.1293022921
 30
0.0
 11
-0.4058994436
 21
2.1500934611
 31
0.0
  0
LINE
  5
236
330
1F
100
AcDbEntity
  8
0
  6
Continuous
 62
     7
370
    25
100
AcDbLine
 10
-0.5037142037
 20
2.1293022921
 30
0.0
 11
-0.4205495274
 21
1.7380432518
 31
0.0
  0
LINE
  5
237
330
1F
100
AcDbEntity
  8
0
  6
Continuous
 62
     7
370
    25
100
AcDbLine
 10
1.7403354126
 20
1.3262310891
 30
0.0
 11
1.7907103464
 21
1.2568959409
 31
0.0
  0
LINE
  5
238
330
1F
100
AcDbEntity
  8
0
  6
Continuous
 62
     7
370
    25
100
AcDbLine
 10
1.7403354126
 20
1.3262310891
 30
0.0
 11
1.4167286148
 21
1.0911169882
 31
0.0
  0
LINE
  5
239
330
1F
100
AcDbEntity
  8
0
  6
Continuous
 62
     7
370
    25
100
AcDbLine
 10
1.4167286148
 20
1.0911169882
 30
0.0
 11
1.4755071401
 21
1.0102152888
 31
0.0
  0
LINE
  5
23A
330
1F
100
AcDbEntity
  8
0
  6
Continuous
 62
     7
370
    25
100
AcDbLine
 10
1.786098194
 20
1.2358728983
 30
0.0
 11
1.4755071401
 21
1.0102152888
 31
0.0
  0
LINE
  5
23B
330
1F
100
AcDbEntity
  8
0
  6
Continuous
 62
     7
370
    25
100
AcDbLine
 10
1.797622909
 20
1.0955930974
 30
0.0
 11
1.5230204093
 21
0.9370512702
 31
0.0
  0
LINE
  5
23C
330
1F
100
AcDbEntity
  8
0
  6
Continuous
 62
     7
370
    25
100
AcDbLine
 10
1.5230204093
 20
0.9370512702
 30
0.0
 11
1.5730204093
 21
0.8504487298
 31
0.0
  0
LINE
  5
23D
330
1F
100
AcDbEntity
  8
0
  6
Continuous
 62
     7
370
    25
100
AcDbLine
 10
1.847622909
 20
1.008990557
 30
0.0
 11
1.5730204093
 21
0.8504487298
 31
0.0
  0
LINE
  5
23E
330
1F
100
AcDbEntity
  8
0
  6
Continuous
 62
     7
370
    25
100
AcDbLine
 10
1.9633464228
 20
0.9288699606
 30
0.0
 11
1.6126256734
 21
0.7727190224
 31
0.0
  0
LINE
  5
23F
330
1F
100
AcDbEntity
  8
0
  6
Continuous
 62
     7
370
    25
100
AcDbLine
 10
1.6126256734
 20
0.7727190224
 30
0.0
 11
1.6532993377
 21
0.6813644766
 31
0.0
  0
LINE
  5
240
330
1F
100
AcDbEntity
  8
0
  6
Continuous
 62
     7
370
    25
100
AcDbLine
 10
2.0187175207
 20
0.8440591338
 30
0.0
 11
1.6532993377
 21
0.6813644766
 31
0.0
  0
LINE
  5
241
330
1F
100
AcDbEntity
  8
0
  6
Continuous
 62
     7
370
    25
100
AcDbLine
 10
1.983858988
 20
0.9223526804
 30
0.0
 11
2.0187175207
 21
0.8440591338
 31
0.0
  0
LINE
  5
242
330
1F
100
AcDbEntity
  8
0
  6
Continuous
 62
     7
370
    25
100
AcDbLine
 10
2.0187175207
 20
-0.8440591338
 30
0.0
 11
1.983858988
 21
-0.9223526804
 31
0.0
  0
LINE
  5
243
330
1F
100
AcDbEntity
  8
0
  6
Continuous
 62
     7
370
    25
100
AcDbLine
 10
2.0187175207
 20
-0.8440591338
 30
0.0
 11
1.6532993377
 21
-0.6813644766
 31
0.0
  0
LINE
  5
244
330
1F
100
AcDbEntity
  8
0
  6
Continuous
 62
     7
370
    25
100
AcDbLine
 10
1.6532993377
 20
-0.6813644766
 30
0.0
 11
1.6126256734
 21
-0.7727190224
 31
0.0
  0
LINE
  5
245
330
1F
100
AcDbEntity
  8
0
  6
Continuous
 62
     7
370
    25
100
AcDbLine
 10
1.9633464228
 20
-0.9288699606
 30
0.0
 11
1.6126256734
 21
-0.7727190224
 31
0.0
  0
LINE
  5
246
330
1F
100
AcDbEntity
  8
0
  6
Continuous
 62
     7
370
    25
100
AcDbLine
 10
1.847622909
 20
-1.008990557
 30
0.0
 11
1.5730204093
 21
-0.8504487298
 31
0.0
  0
LINE
  5
247
330
1F
100
AcDbEntity
  8
0
  6
Continuous
 62
     7
370
    25
100
AcDbLine
 10
1.5730204093
 20
-0.8504487298
 30
0.0
 11
1.5230204093
 21
-0.9370512702
 31
0.0
  0
LINE
  5
248
330
1F
100
AcDbEntity
  8
0
  6
Continuous
 62
     7
370
    25
100
AcDbLine
 10
1.797622909
 20
-1.0955930974
 30
0.0
 11
1.5230204093
 21
-0.9370512702
 31
0.0
  0
LINE
  5
249
330
1F
100
AcDbEntity
  8
0
  6
Continuous
 62
     7
370
    25
100
AcDbLine
 10
1.786098194
 20
-1.2358728983
 30
0.0
 11
1.4755071401
 21
-1.0102152888
 31
0.0
  0
LINE
  5
24A
330
1F
100
AcDbEntity
  8
0
  6
Continuous
 62
     7
370
    25
100
AcDbLine
 10
1.4755071401
 20
-1.0102152888
 30
0.0
 11
1.4167286148
 21
-1.0911169882
 31
0.0
  0
LINE
  5
24B
330
1F
100
AcDbEntity
  8
0
  6
Continuous
 62
     7
370
    25
100
AcDbLine
 10
1.7403354126
 20
-1.3262310891
 30
0.0
 11
1.4167286148
 21
-1.0911169882
 31
0.0
  0
LINE
  5
24C
330
1F
100
AcDbEntity
  8
0
  6
Continuous
 62
     7
370
    25
100
AcDbLine
 10
1.7907103464
 20
-1.2568959409
 30
0.0
 11
1.7403354126
 21
-1.3262310891
 31
0.0
  0
LINE
  5
24D
330
1F
100
AcDbEntity
  8
0
  6
Continuous
 62
     7
370
    25
100
AcDbLine
 10
0.2783821082
 20
-2.170290223
 30
0.0
 11
0.1931486415
 21
-2.1792486213
 31
0.0
  0
LINE
  5
24E
330
1F
100
AcDbEntity
  8
0
  6
Continuous
 62
     7
370
    25
100
AcDbLine
 10
0.2783821082
 20
-2.170290223
 30
0.0
 11
0.2365707229
 21
-1.7724814648
 31
0.0
  0
LINE
  5
24F
330
1F
100
AcDbEntity
  8
0
  6
Continuous
 62
     7
370
    25
100
AcDbLine
 10
0.2365707229
 20
-1.7724814648
 30
0.0
 11
0.1371185333
 21
-1.7829343111
 31
0.0
  0
LINE
  5
250
330
1F
100
AcDbEntity
  8
0
  6
Continuous
 62
     7
370
    25
100
AcDbLine
 10
0.1772482287
 20
-2.1647428588
 30
0.0
 11
0.1371185333
 21
-1.7829343111
 31
0.0
  0
LINE
  5
251
330
1F
100
AcDbEntity
  8
0
  6
Continuous
 62
     7
370
    25
100
AcDbLine
 10
0.05
 20
-2.1045836543
 30
0.0
 11
0.05
 21
-1.7875
 31
0.0
  0
LINE
  5
252
330
1F
100
AcDbEntity
  8
0
  6
Continuous
 62
     7
370
    25
100
AcDbLine
 10
0.05
 20
-1.7875
 30
0.0
 11
-0.05
 21
-1.7875
 31
0.0
  0
LINE
  5
253
330
1F
100
AcDbEntity
  8
0
  6
Continuous
 62
     7
370
    25
100
AcDbLine
 10
-0.05
 20
-2.1045836543
 30
0.0
 11
-0.05
 21
-1.7875
 31
0.0
  0
LINE
  5
254
330
1F
100
AcDbEntity
  8
0
  6
Continuous
 62
     7
370
    25
100
AcDbLine
 10
-0.1772482287
 20
-2.1647428588
 30
0.0
 11
-0.1371185333
 21
-1.7829343111
 31
0.0
  0
LINE
  5
255
330
1F
100
AcDbEntity
  8
0
  6
Continuous
 62
     7
370
    25
100
AcDbLine
 10
-0.1371185333
 20
-1.7829343111
 30
0.0
 11
-0.2365707229
 21
-1.7724814648
 31
0.0
  0
LINE
  5
256
330
1F
100
AcDbEntity
  8
0
  6
Continuous
 62
     7
370
    25
100
AcDbLine
 10
-0.2783821082
 20
-2.170290223
 30
0.0
 11
-0.2365707229
 21
-1.7724814648
 31
0.0
  0
LINE
  5
257
330
1F
100
AcDbEntity
  8
0
  6
Continuous
 62
     7
370
    25
100
AcDbLine
 10
-0.1931486415
 20
-2.1792486213
 30
0.0
 11
-0.2783821082
 21
-2.170290223
 31
0.0
  0
LINE
  5
258
330
1F
100
AcDbEntity
  8
0
  6
Continuous
 62
     7
370
    25
100
AcDbLine
 10
-1.7403354126
 20
-1.3262310891
 30
0.0
 11
-1.7907103464
 21
-1.2568959409
 31
0.0
  0
LINE
  5
259
330
1F
100
AcDbEntity
  8
0
  6
Continuous
 62
     7
370
    25
100
AcDbLine
 10
-1.7403354126
 20
-1.3262310891
 30
0.0
 11
-1.4167286148
 21
-1.0911169882
 31
0.0
  0
LINE
  5
25A
330
1F
100
AcDbEntity
  8
0
  6
Continuous
 62
     7
370
    25
100
AcDbLine
 10
-1.4167286148
 20
-1.0911169882
 30
0.0
 11
-1.4755071401
 21
-1.0102152888
 31
0.0
  0
LINE
  5
25B
330
1F
100
AcDbEntity
  8
0
  6
Continuous
 62
     7
370
    25
100
AcDbLine
 10
-1.786098194
 20
-1.2358728983
 30
0.0
 11
-1.4755071401
 21
-1.0102152888
 31
0.0
  0
LINE
  5
25C
330
1F
100
AcDbEntity
  8
0
  6
Continuous
 62
     7
370
    25
100
AcDbLine
 10
-1.797622909
 20
-1.0955930974
 30
0.0
 11
-1.5230204093
 21
-0.9370512702
 31
0.0
  0
LINE
  5
25D
330
1F
100
AcDbEntity
  8
0
  6
Continuous
 62
     7
370
    25
100
AcDbLine
 10
-1.5230204093
 20
-0.9370512702
 30
0.0
 11
-1.5730204093
 21
-0.8504487298
 31
0.0
  0
LINE
  5
25E
330
1F
100
AcDbEntity
  8
0
  6
Continuous
 62
     7
370
    25
100
AcDbLine
 10
-1.847622909
 20
-1.008990557
 30
0.0
 11
-1.5730204093
 21
-0.8504487298
 31
0.0
  0
LINE
  5
25F
330
1F
100
AcDbEntity
  8
0
  6
Continuous
 62
     7
370
    25
100
AcDbLine
 10
-1.9633464228
 20
-0.9288699606
 30
0.0
 11
-1.6126256734
 21
-0.7727190224
 31
0.0
  0
LINE
  5
260
330
1F
100
AcDbEntity
  8
0
  6
Continuous
 62
     7
370
    25
100
AcDbLine
 10
-1.6126256734
 20
-0.7727190224
 30
0.0
 11
-1.6532993377
 21
-0.6813644766
 31
0.0
  0
LINE
  5
261
330
1F
100
AcDbEntity
  8
0
  6
Continuous
 62
     7
370
    25
100
AcDbLine
 10
-2.0187175207
 20
-0.8440591338
 30
0.0
 11
-1.6532993377
 21
-0.6813644766
 31
0.0
  0
LINE
  5
262
330
1F
100
AcDbEntity
  8
0
  6
Continuous
 62
     7
370
    25
100
AcDbLine
 10
-1.983858988
 20
-0.9223526804
 30
0.0
 11
-2.0187175207
 21
-0.8440591338
 31
0.0
  0
LINE
  5
263
330
1F
100
AcDbEntity
  8
0
  6
Continuous
 62
     7
370
    25
100
AcDbLine
 10
-2.0187175207
 20
0.8440591338
 30
0.0
 11
-1.983858988
 21
0.9223526804
 31
0.0
  0
LINE
  5
264
330
1F
100
AcDbEntity
  8
0
  6
Continuous
 62
     7
370
    25
100
AcDbLine
 10
-2.0187175207
 20
0.8440591338
 30
0.0
 11
-1.6532993377
 21
0.6813644766
 31
0.0
  0
LINE
  5
265
330
1F
100
AcDbEntity
  8
0
  6
Continuous
 62
     7
370
    25
100
AcDbLine
 10
-1.6532993377
 20
0.6813644766
 30
0.0
 11
-1.6126256734
 21
0.7727190224
 31
0.0
  0
LINE
  5
266
330
1F
100
AcDbEntity
  8
0
  6
Continuous
 62
     7
370
    25
100
AcDbLine
 10
-1.9633464228
 20
0.9288699606
 30
0.0
 11
-1.6126256734
 21
0.7727190224
 31
0.0
  0
LINE
  5
267
330
1F
100
AcDbEntity
  8
0
  6
Continuous
 62
     7
370
    25
100
AcDbLine
 10
-1.847622909
 20
1.008990557
 30
0.0
 11
-1.5730204093
 21
0.8504487298
 31
0.0
  0
LINE
  5
268
330
1F
100
AcDbEntity
  8
0
  6
Continuous
 62
     7
370
    25
100
AcDbLine
 10
-1.5730204093
 20
0.8504487298
 30
0.0
 11
-1.5230204093
 21
0.9370512702
 31
0.0
  0
LINE
  5
269
330
1F
100
AcDbEntity
  8
0
  6
Continuous
 62
     7
370
    25
100
AcDbLine
 10
-1.797622909
 20
1.0955930974
 30
0.0
 11
-1.5230204093
 21
0.9370512702
 31
0.0
  0
LINE
  5
26A
330
1F
100
AcDbEntity
  8
0
  6
Continuous
 62
     7
370
    25
100
AcDbLine
 10
-1.786098194
 20
1.2358728983
 30
0.0
 11
-1.4755071401
 21
1.0102152888
 31
0.0
  0
LINE
  5
26B
330
1F
100
AcDbEntity
  8
0
  6
Continuous
 62
     7
370
    25
100
AcDbLine
 10
-1.4755071401
 20
1.0102152888
 30
0.0
 11
-1.4167286148
 21
1.0911169882
 31
0.0
  0
LINE
  5
26C
330
1F
100
AcDbEntity
  8
0
  6
Continuous
 62
     7
370
    25
100
AcDbLine
 10
-1.7403354126
 20
1.3262310891
 30
0.0
 11
-1.4167286148
 21
1.0911169882
 31
0.0
  0
LINE
  5
26D
330
1F
100
AcDbEntity
  8
0
  6
Continuous
 62
     7
370
    25
100
AcDbLine
 10
-1.7907103464
 20
1.2568959409
 30
0.0
 11
-1.7403354126
 21
1.3262310891
 31
0.0
  0
LINE
  5
26E
330
1F
100
AcDbEntity
  8
0
  6
Continuous
 62
     7
370
    25
100
AcDbLine
 10
-0.2783821082
 20
2.170290223
 30
0.0
 11
-0.1931486415
 21
2.1792486213
 31
0.0
  0
LINE
  5
26F
330
1F
100
AcDbEntity
  8
0
  6
Continuous
 62
     7
370
    25
100
AcDbLine
 10
-0.2783821082
 20
2.170290223
 30
0.0
 11
-0.2365707229
 21
1.7724814648
 31
0.0
  0
LINE
  5
270
330
1F
100
AcDbEntity
  8
0
  6
Continuous
 62
     7
370
    25
100
AcDbLine
 10
-0.2365707229
 20
1.7724814648
 30
0.0
 11
-0.1371185333
 21
1.7829343111
 31
0.0
  0
LINE
  5
271
330
1F
100
AcDbEntity
  8
0
  6
Continuous
 62
     7
370
    25
100
AcDbLine
 10
-0.1772482287
 20
2.1647428588
 30
0.0
 11
-0.1371185333
 21
1.7829343111
 31
0.0
  0
LINE
  5
272
330
1F
100
AcDbEntity
  8
0
  6
Continuous
 62
     7
370
    25
100
AcDbLine
 10
-0.05
 20
2.1045836543
 30
0.0
 11
-0.05
 21
1.7875
 31
0.0
  0
LINE
  5
273
330
1F
100
AcDbEntity
  8
0
  6
Continuous
 62
     7
370
    25
100
AcDbLine
 10
-0.05
 20
1.7875
 30
0.0
 11
0.05
 21
1.7875
 31
0.0
  0
LINE
  5
274
330
1F
100
AcDbEntity
  8
0
  6
Continuous
 62
     7
370
    25
100
AcDbLine
 10
0.05
 20
2.1045836543
 30
0.0
 11
0.05
 21
1.7875
 31
0.0
  0
LINE
  5
275
330
1F
100
AcDbEntity
  8
0
  6
Continuous
 62
     7
370
    25
100
AcDbLine
 10
0.1772482287
 20
2.1647428588
 30
0.0
 11
0.1371185333
 21
1.7829343111
 31
0.0
  0
LINE
  5
276
330
1F
100
AcDbEntity
  8
0
  6
Continuous
 62
     7
370
    25
100
AcDbLine
 10
0.1371185333
 20
1.7829343111
 30
0.0
 11
0.2365707229
 21
1.7724814648
 31
0.0
  0
LINE
  5
277
330
1F
100
AcDbEntity
  8
0
  6
Continuous
 62
     7
370
    25
100
AcDbLine
 10
0.2783821082
 20
2.170290223
 30
0.0
 11
0.2365707229
 21
1.7724814648
 31
0.0
  0
LINE
  5
278
330
1F
100
AcDbEntity
  8
0
  6
Continuous
 62
     7
370
    25
100
AcDbLine
 10
0.1931486415
 20
2.1792486213
 30
0.0
 11
0.2783821082
 21
2.170290223
 31
0.0
  0
ARC
  5
279
330
1F
100
AcDbEntity
  8
0
  6
Continuous
 62
     7
370
    25
100
AcDbCircle
 10
1.2622319676
 20
-1.0234234022
 30
0.0
 40
0.1000000000000004
100
AcDbArc
 50
320.96470409
 51
34.8688846517
  0
ARC
  5
27A
330
1F
100
AcDbEntity
  8
0
  6
Continuous
 62
     7
370
    25
100
AcDbCircle
 10
1.5180754016
 20
-0.5797172371
 30
0.0
 40
0.1000000000000014
100
AcDbArc
 50
265.1951405238
 51
339.0993210855
  0
ARC
  5
27B
330
1F
100
AcDbEntity
  8
0
  6
Continuous
 62
     7
370
    25
100
AcDbCircle
 10
0.0
 20
0.0
 30
0.0
 40
1.725000000000003
100
AcDbArc
 50
339.0993210855
 51
20.96470409
  0
ARC
  5
27C
330
1F
100
AcDbEntity
  8
0
  6
Continuous
 62
     7
370
    25
100
AcDbCircle
 10
1.5174266489
 20
0.5814132483
 30
0.0
 40
0.1000000000000015
100
AcDbArc
 50
20.96470409
 51
94.8688846517
  0
ARC
  5
27D
330
1F
100
AcDbEntity
  8
0
  6
Continuous
 62
     7
370
    25
100
AcDbCircle
 10
1.2610875551
 20
1.0248332442
 30
0.0
 40
0.1000000000000013
100
AcDbArc
 50
325.1951405238
 51
39.0993210855
  0
ARC
  5
27E
330
1F
100
AcDbEntity
  8
0
  6
Continuous
 62
     7
370
    25
100
AcDbCircle
 10
0.0
 20
0.0
 30
0.0
 40
1.724999999999988
100
AcDbArc
 50
39.0993210855
 51
80.96470409
  0
ARC
  5
27F
330
1F
100
AcDbEntity
  8
0
  6
Continuous
 62
     7
370
    25
100
AcDbCircle
 10
0.2551946813
 20
1.6048366504
 30
0.0
 40
0.0999999999999995
100
AcDbArc
 50
80.96470409
 51
154.8688846517
  0
ARC
  5
280
330
1F
100
AcDbEntity
  8
0
  6
Continuous
 62
     7
370
    25
100
AcDbCircle
 10
-0.2569878465
 20
1.6045504812
 30
0.0
 40
0.1000000000000004
100
AcDbArc
 50
25.1951405238
 51
99.0993210855
  0
ARC
  5
281
330
1F
100
AcDbEntity
  8
0
  6
Continuous
 62
     7
370
    25
100
AcDbCircle
 10
0.0
 20
0.0
 30
0.0
 40
1.724999999999998
100
AcDbArc
 50
99.0993210855
 51
140.96470409
  0
ARC
  5
282
330
1F
100
AcDbEntity
  8
0
  6
Continuous
 62
     7
370
    25
100
AcDbCircle
 10
-1.2622319676
 20
1.0234234022
 30
0.0
 40
0.1000000000000007
100
AcDbArc
 50
140.96470409
 51
214.8688846517
  0
ARC
  5
283
330
1F
100
AcDbEntity
  8
0
  6
Continuous
 62
     7
370
    25
100
AcDbCircle
 10
-1.5180754016
 20
0.5797172371
 30
0.0
 40
0.0999999999999994
100
AcDbArc
 50
85.1951405238
 51
159.0993210855
  0
ARC
  5
284
330
1F
100
AcDbEntity
  8
0
  6
Continuous
 62
     7
370
    25
100
AcDbCircle
 10
0.0
 20
0.0
 30
0.0
 40
1.725
100
AcDbArc
 50
159.0993210855
 51
200.96470409
  0
ARC
  5
285
330
1F
100
AcDbEntity
  8
0
  6
Continuous
 62
     7
370
    25
100
AcDbCircle
 10
-1.5174266489
 20
-0.5814132483
 30
0.0
 40
0.1000000000000012
100
AcDbArc
 50
200.96470409
 51
274.8688846517
  0
ARC
  5
286
330
1F
100
AcDbEntity
  8
0
  6
Continuous
 62
     7
370
    25
100
AcDbCircle
 10
-1.2610875551
 20
-1.0248332442
 30
0.0
 40
0.0999999999999995
100
AcDbArc
 50
145.1951405238
 51
219.0993210855
  0
ARC
  5
287
330
1F
100
AcDbEntity
  8
0
  6
Continuous
 62
     7
370
    25
100
AcDbCircle
 10
0.0
 20
0.0
 30
0.0
 40
1.724999999999989
100
AcDbArc
 50
219.0993210855
 51
260.96470409
  0
ARC
  5
288
330
1F
100
AcDbEntity
  8
0
  6
Continuous
 62
     7
370
    25
100
AcDbCircle
 10
-0.2551946813
 20
-1.6048366504
 30
0.0
 40
0.0999999999999998
100
AcDbArc
 50
260.96470409
 51
334.8688846517
  0
ARC
  5
289
330
1F
100
AcDbEntity
  8
0
  6
Continuous
 62
     7
370
    25
100
AcDbCircle
 10
0.2569878465
 20
-1.6045504812
 30
0.0
 40
0.1000000000000006
100
AcDbArc
 50
205.1951405238
 51
279.0993210855
  0
ARC
  5
28A
330
1F
100
AcDbEntity
  8
0
  6
Continuous
 62
     7
370
    25
100
AcDbCircle
 10
0.0
 20
0.0
 30
0.0
 40
1.725000000000005
100
AcDbArc
 50
279.0993210855
 51
320.96470409
  0
ARC
  5
28B
330
1F
100
AcDbEntity
  8
0
  6
Continuous
 62
     7
370
    25
100
AcDbCircle
 10
2.056810334
 20
1.1875
 30
0.0
 40
0.2749999999999931
100
AcDbArc
 50
169.8688789101
 51
199.5243183036
  0
ARC
  5
28C
330
1F
100
AcDbEntity
  8
0
  6
Continuous
 62
     7
370
    25
100
AcDbCircle
 10
2.056810334
 20
1.1875
 30
0.0
 40
0.2749999999999992
100
AcDbArc
 50
220.4756816964
 51
250.13112109
  0
ARC
  5
28D
330
1F
100
AcDbEntity
  8
0
  6
Continuous
 62
     7
370
    25
100
AcDbCircle
 10
2.056810334
 20
1.1875
 30
0.0
 40
0.2750000000000973
100
AcDbArc
 50
254.616550216
 51
269.9683397005
  0
ARC
  5
28E
330
1F
100
AcDbEntity
  8
0
  6
Continuous
 62
     7
370
    25
100
AcDbCircle
 10
0.0
 20
0.0
 30
0.0
 40
2.249999999999995
100
AcDbArc
 50
336.0740530366
 51
23.9259469634
  0
ARC
  5
28F
330
1F
100
AcDbEntity
  8
0
  6
Continuous
 62
     7
370
    25
100
AcDbCircle
 10
2.056810334
 20
-1.1875
 30
0.0
 40
0.2749999999999033
100
AcDbArc
 50
90.0316602995
 51
105.383449784
  0
ARC
  5
290
330
1F
100
AcDbEntity
  8
0
  6
Continuous
 62
     7
370
    25
100
AcDbCircle
 10
2.056810334
 20
-1.1875
 30
0.0
 40
0.2749999999999996
100
AcDbArc
 50
109.86887891
 51
139.5243183036
  0
ARC
  5
291
330
1F
100
AcDbEntity
  8
0
  6
Continuous
 62
     7
370
    25
100
AcDbCircle
 10
2.056810334
 20
-1.1875
 30
0.0
 40
0.2749999999999976
100
AcDbArc
 50
160.4756816964
 51
190.13112109
  0
ARC
  5
292
330
1F
100
AcDbEntity
  8
0
  6
Continuous
 62
     7
370
    25
100
AcDbCircle
 10
2.056810334
 20
-1.1875
 30
0.0
 40
0.2750000000000952
100
AcDbArc
 50
194.616550216
 51
209.9683397005
  0
ARC
  5
293
330
1F
100
AcDbEntity
  8
0
  6
Continuous
 62
     7
370
    25
100
AcDbCircle
 10
0.0
 20
0.0
 30
0.0
 40
2.249999999999995
100
AcDbArc
 50
276.0740530366
 51
323.9259469634
  0
ARC
  5
294
330
1F
100
AcDbEntity
  8
0
  6
Continuous
 62
     7
370
    25
100
AcDbCircle
 10
0.0
 20
-2.375
 30
0.0
 40
0.2749999999999161
100
AcDbArc
 50
30.0316602995
 51
45.383449784
  0
ARC
  5
295
330
1F
100
AcDbEntity
  8
0
  6
Continuous
 62
     7
370
    25
100
AcDbCircle
 10
0.0
 20
-2.375
 30
0.0
 40
0.275000000000001
100
AcDbArc
 50
49.86887891
 51
79.5243183036
  0
ARC
  5
296
330
1F
100
AcDbEntity
  8
0
  6
Continuous
 62
     7
370
    25
100
AcDbCircle
 10
0.0
 20
-2.375
 30
0.0
 40
0.2749999999999978
100
AcDbArc
 50
100.4756816964
 51
130.1311210899
  0
ARC
  5
297
330
1F
100
AcDbEntity
  8
0
  6
Continuous
 62
     7
370
    25
100
AcDbCircle
 10
0.0
 20
-2.375
 30
0.0
 40
0.2750000000000939
100
AcDbArc
 50
134.616550216
 51
149.9683397005
  0
ARC
  5
298
330
1F
100
AcDbEntity
  8
0
  6
Continuous
 62
     7
370
    25
100
AcDbCircle
 10
0.0
 20
0.0
 30
0.0
 40
2.250000000000002
100
AcDbArc
 50
216.0740530366
 51
263.9259469634
  0
ARC
  5
299
330
1F
100
AcDbEntity
  8
0
  6
Continuous
 62
     7
370
    25
100
AcDbCircle
 10
-2.056810334
 20
-1.1875
 30
0.0
 40
0.2749999999999179
100
AcDbArc
 50
330.0316602995
 51
345.383449784
  0
ARC
  5
29A
330
1F
100
AcDbEntity
  8
0
  6
Continuous
 62
     7
370
    25
100
AcDbCircle
 10
-2.056810334
 20
-1.1875
 30
0.0
 40
0.2749999999999995
100
AcDbArc
 50
349.86887891
 51
19.5243183036
  0
ARC
  5
29B
330
1F
100
AcDbEntity
  8
0
  6
Continuous
 62
     7
370
    25
100
AcDbCircle
 10
-2.056810334
 20
-1.1875
 30
0.0
 40
0.2750000000000045
100
AcDbArc
 50
40.4756816964
 51
70.13112109
  0
ARC
  5
29C
330
1F
100
AcDbEntity
  8
0
  6
Continuous
 62
     7
370
    25
100
AcDbCircle
 10
-2.056810334
 20
-1.1875
 30
0.0
 40
0.2750000000001268
100
AcDbArc
 50
74.616550216
 51
89.9683397005
  0
ARC
  5
29D
330
1F
100
AcDbEntity
  8
0
  6
Continuous
 62
     7
370
    25
100
AcDbCircle
 10
0.0
 20
0.0
 30
0.0
 40
2.249999999999996
100
AcDbArc
 50
156.0740530366
 51
203.9259469634
  0
ARC
  5
29E
330
1F
100
AcDbEntity
  8
0
  6
Continuous
 62
     7
370
    25
100
AcDbCircle
 10
-2.056810334
 20
1.1875
 30
0.0
 40
0.2749999999999045
100
AcDbArc
 50
270.0316602995
 51
285.383449784
  0
ARC
  5
29F
330
1F
100
AcDbEntity
  8
0
  6
Continuous
 62
     7
370
    25
100
AcDbCircle
 10
-2.056810334
 20
1.1875
 30
0.0
 40
0.2749999999999996
100
AcDbArc
 50
289.86887891
 51
319.5243183036
  0
ARC
  5
2A0
330
1F
100
AcDbEntity
  8
0
  6
Continuous
 62
     7
370
    25
100
AcDbCircle
 10
-2.056810334
 20
1.1875
 30
0.0
 40
0.2749999999999942
100
AcDbArc
 50
340.4756816964
 51
10.13112109
  0
ARC
  5
2A1
330
1F
100
AcDbEntity
  8
0
  6
Continuous
 62
     7
370
    25
100
AcDbCircle
 10
-2.056810334
 20
1.1875
 30
0.0
 40
0.2750000000000642
100
AcDbArc
 50
14.616550216
 51
29.9683397005
  0
ARC
  5
2A2
330
1F
100
AcDbEntity
  8
0
  6
Continuous
 62
     7
370
    25
100
AcDbCircle
 10
0.0
 20
0.0
 30
0.0
 40
2.249999999999992
100
AcDbArc
 50
96.0740530366
 51
143.9259469634
  0
ARC
  5
2A3
330
1F
100
AcDbEntity
  8
0
  6
Continuous
 62
     7
370
    25
100
AcDbCircle
 10
0.0
 20
2.375
 30
0.0
 40
0.2749999999999142
100
AcDbArc
 50
210.0316602995
 51
225.383449784
  0
ARC
  5
2A4
330
1F
100
AcDbEntity
  8
0
  6
Continuous
 62
     7
370
    25
100
AcDbCircle
 10
0.0
 20
2.375
 30
0.0
 40
0.2750000000000019
100
AcDbArc
 50
229.86887891
 51
259.5243183036
  0
ARC
  5
2A5
330
1F
100
AcDbEntity
  8
0
  6
Continuous
 62
     7
370
    25
100
AcDbCircle
 10
0.0
 20
2.375
 30
0.0
 40
0.2750000000000087
100
AcDbArc
 50
280.4756816964
 51
310.13112109
  0
ARC
  5
2A6
330
1F
100
AcDbEntity
  8
0
  6
Continuous
 62
     7
370
    25
100
AcDbCircle
 10
0.0
 20
2.375
 30
0.0
 40
0.2750000000000954
100
AcDbArc
 50
314.616550216
 51
329.9683397005
  0
ARC
  5
2A7
330
1F
100
AcDbEntity
  8
0
  6
Continuous
 62
     7
370
    25
100
AcDbCircle
 10
0.0
 20
0.0
 30
0.0
 40
2.250000000000006
100
AcDbArc
 50
36.0740530366
 51
83.9259469634
  0
ARC
  5
2A8
330
1F
100
AcDbEntity
  8
0
  6
Continuous
 62
     7
370
    25
100
AcDbCircle
 10
2.056810334
 20
1.1875
 30
0.0
 40
0.2749999999999083
100
AcDbArc
 50
150.0316602995
 51
165.383449784
  0
ARC
  5
2A9
330
1F
100
AcDbEntity
  8
0
  6
Continuous
 62
     7
370
    25
100
AcDbCircle
 10
-1.4943754887
 20
0.8616651895
 30
0.0
 40
0.1829422799177326
100
AcDbArc
 50
243.0716470669
 51
56.9923781086
  0
ARC
  5
2AA
330
1F
100
AcDbEntity
  8
0
  6
Continuous
 62
     7
370
    25
100
AcDbCircle
 10
-0.0009638007
 20
1.7249997308
 30
0.0
 40
0.1829422799177325
100
AcDbArc
 50
183.0716470669
 51
356.9923781086
  0
ARC
  5
2AB
330
1F
100
AcDbEntity
  8
0
  6
Continuous
 62
     7
370
    25
100
AcDbCircle
 10
-1.493411688
 20
-0.8633345412
 30
0.0
 40
0.1829422799177324
100
AcDbArc
 50
303.0716470669
 51
116.9923781086
  0
ARC
  5
2AC
330
1F
100
AcDbEntity
  8
0
  6
Continuous
 62
     7
370
    25
100
AcDbCircle
 10
1.493411688
 20
0.8633345412
 30
0.0
 40
0.1829422799177326
100
AcDbArc
 50
123.0716470669
 51
296.9923781086
  0
ARC
  5
2AD
330
1F
100
AcDbEntity
  8
0
  6
Continuous
 62
     7
370
    25
100
AcDbCircle
 10
1.4943754887
 20
-0.8616651895
 30
0.0
 40
0.1829422799177325
100
AcDbArc
 50
63.0716470669
 51
236.9923781086
  0
ARC
  5
2AE
330
1F
100
AcDbEntity
  8
0
  6
Continuous
 62
     7
370
    25
100
AcDbCircle
 10
0.0
 20
0.0
 30
0.0
 40
1.724999999999963
100
AcDbArc
 50
263.9527436294
 51
276.1112815461
  0
ARC
  5
2AF
330
1F
100
AcDbEntity
  8
0
  6
Continuous
 62
     7
370
    25
100
AcDbCircle
 10
0.0009638007
 20
-1.7249997308
 30
0.0
 40
0.1829422799177324
100
AcDbArc
 50
3.0716470669
 51
176.9923781086
  0
MTEXT
  5
2B1
330
1F
100
AcDbEntity
  8
0
  6
Continuous
 62
     7
100
AcDbMText
 10
-2.25
 20
-2.2775088302
 30
0.0
 40
0.1903
 41
0.0
 71
     1
 72
     1
  1
SOLIDWORKS Educational Product.
  7
SLDTEXTSTYLE0
 73
     1
 44
1.0
  0
MTEXT
  5
2B2
330
1F
100
AcDbEntity
  8
0
  6
Continuous
 62
     7
100
AcDbMText
 10
-2.25
 20
-2.5629588302
 30
0.0
 40
0.1903
 41
0.0
 71
     1
 72
     1
  1
For Instructional Use Only.
  7
SLDTEXTSTYLE0
 73
     1
 44
1.0
  0
ENDSEC
  0
SECTION
  2
OBJECTS
  0
DICTIONARY
  5
C
330
0
100
AcDbDictionary
281
     1
  3
ACAD_GROUP
350
D
  3
ACAD_LAYOUT
350
1A
  3
ACAD_MLINESTYLE
350
17
  3
ACAD_PLOTSETTINGS
350
19
  3
ACAD_PLOTSTYLENAME
350
E
  3
ACAD_SCALELIST
350
47
  3
DWGPROPS
350
2B3
  0
DICTIONARY
  5
D
102
{ACAD_REACTORS
330
C
102
}
330
C
100
AcDbDictionary
281
     1
  0
DICTIONARY
  5
1A
102
{ACAD_REACTORS
330
C
102
}
330
C
100
AcDbDictionary
281
     1
  3
Layout1
350
1E
  3
Layout2
350
26
  3
Model
350
22
  0
DICTIONARY
  5
17
102
{ACAD_REACTORS
330
C
102
}
330
C
100
AcDbDictionary
281
     1
  3
Standard
350
18
  0
DICTIONARY
  5
19
102
{ACAD_REACTORS
330
C
102
}
330
C
100
AcDbDictionary
281
     1
  0
ACDBDICTIONARYWDFLT
  5
E
102
{ACAD_REACTORS
330
C
102
}
330
C
100
AcDbDictionary
281
     1
  3
Normal
350
F
100
AcDbDictionaryWithDefault
340
F
  0
DICTIONARY
  5
47
102
{ACAD_REACTORS
330
C
102
}
330
C
100
AcDbDictionary
281
     1
  3
A0
350
48
  3
A1
350
49
  3
A2
350
4A
  3
A3
350
4B
  3
A4
350
4C
  3
A5
350
4D
  3
A6
350
4E
  3
A7
350
4F
  3
A8
350
50
  3
A9
350
51
  3
B1
350
52
  3
B2
350
53
  3
B3
350
54
  3
B4
350
55
  3
B5
350
56
  3
B6
350
57
  3
B7
350
58
  0
XRECORD
  5
2B3
102
{ACAD_REACTORS
330
C
102
}
330
C
100
AcDbXrecord
280
     1
  1
DWGPROPS COOKIE
  2

  3

  4

  6

  7

  8
cjyee
  9

300
=
301
=
302
=
303
=
304
=
305
=
306
=
307
=
308
=
309
=
 40
0.0
 41
2459987.781209699
 42
2459987.781394769
  1

 90
        0
  0
LAYOUT
  5
1E
102
{ACAD_REACTORS
330
1A
102
}
330
1A
100
AcDbPlotSettings
  1

  2
none_device
  4

  6

 40
0.0
 41
0.0
 42
0.0
 43
0.0
 44
0.0
 45
0.0
 46
0.0
 47
0.0
 48
0.0
 49
0.0
140
0.0
141
0.0
142
1.0
143
1.0
 70
   688
 72
     0
 73
     0
 74
     5
  7

 75
    16
147
1.0
148
0.0
149
0.0
100
AcDbLayout
  1
Layout1
 70
     1
 71
     1
 10
0.0
 20
0.0
 11
12.0
 21
9.0
 12
0.0
 22
0.0
 32
0.0
 14
1.0000000000E+20
 24
1.0000000000E+20
 34
1.0000000000E+20
 15
-1.0000000000E+20
 25
-1.0000000000E+20
 35
-1.0000000000E+20
146
0.0
 13
0.0
 23
0.0
 33
0.0
 16
1.0
 26
0.0
 36
0.0
 17
0.0
 27
1.0
 37
0.0
 76
     0
330
1B
  0
LAYOUT
  5
26
102
{ACAD_REACTORS
330
1A
102
}
330
1A
100
AcDbPlotSettings
  1

  2
none_device
  4

  6

 40
0.0
 41
0.0
 42
0.0
 43
0.0
 44
0.0
 45
0.0
 46
0.0
 47
0.0
 48
0.0
 49
0.0
140
0.0
141
0.0
142
1.0
143
1.0
 70
   688
 72
     0
 73
     0
 74
     5
  7

 75
    16
147
1.0
148
0.0
149
0.0
100
AcDbLayout
  1
Layout2
 70
     1
 71
     2
 10
0.0
 20
0.0
 11
0.0
 21
0.0
 12
0.0
 22
0.0
 32
0.0
 14
0.0
 24
0.0
 34
0.0
 15
0.0
 25
0.0
 35
0.0
146
0.0
 13
0.0
 23
0.0
 33
0.0
 16
1.0
 26
0.0
 36
0.0
 17
0.0
 27
1.0
 37
0.0
 76
     0
330
23
  0
LAYOUT
  5
22
102
{ACAD_REACTORS
330
1A
102
}
330
1A
100
AcDbPlotSettings
  1

  2
none_device
  4
ANSI_A_(11.00_x_8.50_Inches)
  6

 40
6.35
 41
19.05
 42
6.35000508
 43
19.05000254
 44
279.4
 45
215.9
 46
133.34999746
 47
88.89999873
 48
0.0
 49
0.0
140
0.0
141
0.0
142
1.8805575159
143
1.0
 70
  1696
 72
     0
 73
     0
 74
     0
  7

 75
     0
147
0.5913241897
148
-39.4088153714
149
0.0
100
AcDbLayout
  1
Model
 70
     1
 71
     0
 10
0.0
 20
0.0
 11
12.0
 21
9.0
 12
0.0
 22
0.0
 32
0.0
 14
-2.25
 24
-2.2373684211
 34
0.0
 15
2.25
 25
2.2373684211
 35
0.0
146
0.0
 13
0.0
 23
0.0
 33
0.0
 16
1.0
 26
0.0
 36
0.0
 17
0.0
 27
1.0
 37
0.0
 76
     0
330
1F
331
29
  0
MLINESTYLE
  5
18
102
{ACAD_REACTORS
330
17
102
}
330
17
100
AcDbMlineStyle
  2
Standard
 70
     0
  3

 62
   256
 51
90.0
 52
90.0
 71
     2
 49
0.5
 62
   256
  6
BYLAYER
 49
-0.5
 62
   256
  6
BYLAYER
  0
ACDBPLACEHOLDER
  5
F
102
{ACAD_REACTORS
330
E
102
}
330
E
  0
SCALE
  5
48
102
{ACAD_REACTORS
330
47
102
}
330
47
100
AcDbScale
 70
     0
300
1:1
140
1.0
141
1.0
290
     1
  0
SCALE
  5
49
102
{ACAD_REACTORS
330
47
102
}
330
47
100
AcDbScale
 70
     0
300
1/128" = 1'-0"
140
0.0078125
141
12.0
290
     0
  0
SCALE
  5
4A
102
{ACAD_REACTORS
330
47
102
}
330
47
100
AcDbScale
 70
     0
300
1/64" = 1'-0"
140
0.015625
141
12.0
290
     0
  0
SCALE
  5
4B
102
{ACAD_REACTORS
330
47
102
}
330
47
100
AcDbScale
 70
     0
300
1/32" = 1'-0"
140
0.03125
141
12.0
290
     0
  0
SCALE
  5
4C
102
{ACAD_REACTORS
330
47
102
}
330
47
100
AcDbScale
 70
     0
300
1/16" = 1'-0"
140
0.0625
141
12.0
290
     0
  0
SCALE
  5
4D
102
{ACAD_REACTORS
330
47
102
}
330
47
100
AcDbScale
 70
     0
300
3/32" = 1'-0"
140
0.09375
141
12.0
290
     0
  0
SCALE
  5
4E
102
{ACAD_REACTORS
330
47
102
}
330
47
100
AcDbScale
 70
     0
300
1/8" = 1'-0"
140
0.125
141
12.0
290
     0
  0
SCALE
  5
4F
102
{ACAD_REACTORS
330
47
102
}
330
47
100
AcDbScale
 70
     0
300
3/16" = 1'-0"
140
0.1875
141
12.0
290
     0
  0
SCALE
  5
50
102
{ACAD_REACTORS
330
47
102
}
330
47
100
AcDbScale
 70
     0
300
1/4" = 1'-0"
140
0.25
141
12.0
290
     0
  0
SCALE
  5
51
102
{ACAD_REACTORS
330
47
102
}
330
47
100
AcDbScale
 70
     0
300
3/8" = 1'-0"
140
0.375
141
12.0
290
     0
  0
SCALE
  5
52
102
{ACAD_REACTORS
330
47
102
}
330
47
100
AcDbScale
 70
     0
300
1/2" = 1'-0"
140
0.5
141
12.0
290
     0
  0
SCALE
  5
53
102
{ACAD_REACTORS
330
47
102
}
330
47
100
AcDbScale
 70
     0
300
3/4" = 1'-0"
140
0.75
141
12.0
290
     0
  0
SCALE
  5
54
102
{ACAD_REACTORS
330
47
102
}
330
47
100
AcDbScale
 70
     0
300
1" = 1'-0"
140
1.0
141
12.0
290
     0
  0
SCALE
  5
55
102
{ACAD_REACTORS
330
47
102
}
330
47
100
AcDbScale
 70
     0
300
1-1/2" = 1'-0"
140
1.5
141
12.0
290
     0
  0
SCALE
  5
56
102
{ACAD_REACTORS
330
47
102
}
330
47
100
AcDbScale
 70
     0
300
3" = 1'-0"
140
3.0
141
12.0
290
     0
  0
SCALE
  5
57
102
{ACAD_REACTORS
330
47
102
}
330
47
100
AcDbScale
 70
     0
300
6" = 1'-0"
140
6.0
141
12.0
290
     0
  0
SCALE
  5
58
102
{ACAD_REACTORS
330
47
102
}
330
47
100
AcDbScale
 70
     0
300
1'-0" = 1'-0"
140
12.0
141
12.0
290
     0
  0
ENDSEC
  0
EOF
